<?xml version="1.0" encoding="utf-8"?>
<!-- Generator: Adobe Illustrator 19.2.1, SVG Export Plug-In . SVG Version: 6.00 Build 0)  -->
<svg version="1.2" baseProfile="tiny" id="Layer_1" xmlns="http://www.w3.org/2000/svg" xmlns:xlink="http://www.w3.org/1999/xlink"
	 x="0px" y="0px" viewBox="0 0 50.8 47.9" xml:space="preserve">
<g id="Layer_2">
	<g>
		<path fill="none" stroke="#13110C" stroke-width="0.8" stroke-miterlimit="10" d="M4.2,0.4c3.9-0.2,9.9,2.4,17.9,8.1
			c2.7,1.9,12.7,9.8,19.6,18.4c5.4,6.6,10.7,15.5,8,19.2c-0.7,0.8-2.7,2.3-10-0.8c-7.2-3.1-15.6-9.7-20.6-14.5
			C14.9,27.1,8.6,20.5,3.5,12.1C1.3,8.2-1.9,0.6,4.2,0.4z"/>
		<path fill="none" stroke="#13110C" stroke-width="0.8" stroke-miterlimit="10" d="M49.7,46.1c-0.7,0.8-2.7,2.3-10-0.8
			c-7.2-3.1-15.6-9.7-20.6-14.5C14.9,27.1,8.6,20.5,3.5,12.1C1.8,9.1-0.6,3.8,1.4,1.5C0.2,2.9,0.1,4.7,1,8.1
			c0.9,3.4,2.8,11.7,3.1,13.3c0.3,1.6,2.7,8.9,2.1,14.7c-0.5,3.3,0,5.3,1.5,6.6c1.5,1.4,1.9,1.8,8.4,1.1c3.3-0.3,4.4-0.4,13.6,1.1
			c8,1.4,14,2.5,15.7,2.4C47.1,47.4,48.5,47.4,49.7,46.1z"/>
		<path fill="none" stroke="#13110C" stroke-width="0.8" stroke-miterlimit="10" d="M8.8,6c3-0.1,7.6,1.8,13.8,6.2
			c2,1.5,9.8,7.5,15,14.1c4.1,5,8.4,12.3,6.3,15.2c-0.5,0.6-2.8,2.5-8.4,0.1C30,39.2,23,33.6,19.1,30c-3.2-2.9-8-8-12-14.4
			C5.5,12.6,4.1,6.2,8.8,6z"/>
		<path fill="none" stroke="#13110C" stroke-width="0.8" stroke-miterlimit="10" d="M15.8,15.8c1.5-0.1,3.9,1,7.1,3.2
			c1.1,0.8,5,3.9,7.8,7.4c2.1,2.6,4.4,6.4,3.3,7.9c-0.3,0.3-1.5,1.3-4.3,0c-2.9-1.3-6.5-4.2-8.5-6.1c-1.7-1.5-4.2-4.2-6.2-7.5
			C14,19.2,13.3,15.8,15.8,15.8z"/>
		<path fill="none" stroke="#13110C" stroke-width="0.8" stroke-miterlimit="10" d="M4.2,21.8c1.6,3.1,3.6,7.5,10.2,13.7
			c6.7,6.2,12.1,8.6,14.7,9.4"/>
	</g>
</g>
</svg>
