<?xml version="1.0" encoding="utf-8"?>
<!-- Generator: Adobe Illustrator 19.2.1, SVG Export Plug-In . SVG Version: 6.00 Build 0)  -->
<svg version="1.2" baseProfile="tiny" id="Layer_1" xmlns="http://www.w3.org/2000/svg" xmlns:xlink="http://www.w3.org/1999/xlink"
	 x="0px" y="0px" viewBox="0 0 51 51" xml:space="preserve">
<g>
	<path fill="none" d="M1,36.7l0.3,0.1h48.5l0.3-0.1c-0.6-1.6-3.3-8.5-10.3-12.9H11.3C10.4,24.3,3.4,29,1,36.7z"/>
	<path fill="none" d="M25.8,14.2c-0.1,0-10.9-0.6-18.2,8.8h35.9C42.5,21.6,37.2,14.6,25.8,14.2z"/>
	<path fill="#010202" d="M11.5,23.2c0.1,0.2,0.1,0.4-0.1,0.5c0,0,0,0-0.1,0.1h28.5c0,0-0.1,0-0.1-0.1c-0.2-0.1-0.2-0.4-0.1-0.6
		c0.1-0.2,0.4-0.2,0.6-0.1c0.4,0.2,0.7,0.5,1.1,0.7h2.9l0.3-0.8l-0.1-0.2c-0.1-0.1-5.4-9-18.5-9.4c-0.1,0-11.5-0.6-19.1,9.4L6.6,23
		L7,23.8h2.8c0.6-0.4,1-0.7,1.1-0.7C11.1,22.9,11.4,23,11.5,23.2z M25.8,14.2c11.5,0.4,16.8,7.4,17.7,8.8H7.6
		C14.9,13.6,25.6,14.2,25.8,14.2z"/>
	<path fill="#010202" d="M51,37.2l-0.1-0.4c0-0.1-2.3-7.8-9.7-13c-0.4-0.3-0.7-0.5-1.1-0.7c-0.2-0.1-0.4-0.1-0.6,0.1
		c-0.1,0.2-0.1,0.4,0.1,0.6c0,0,0.1,0,0.1,0.1c7,4.4,9.7,11.3,10.3,12.9l-0.3,0.1H1.2L1,36.7c2.4-7.7,9.4-12.3,10.3-12.9
		c0.1,0,0.1-0.1,0.1-0.1c0.2-0.1,0.2-0.4,0.1-0.5c-0.1-0.2-0.4-0.3-0.5-0.1c-0.1,0-0.5,0.3-1.1,0.7c-2.3,1.7-7.7,6.2-9.7,13L0,37.2
		l1,0.4l48.8,0L51,37.2L51,37.2z"/>
</g>
</svg>
