<?xml version="1.0" encoding="utf-8"?>
<!-- Generator: Adobe Illustrator 19.2.1, SVG Export Plug-In . SVG Version: 6.00 Build 0)  -->
<svg version="1.2" baseProfile="tiny" id="Layer_1" xmlns="http://www.w3.org/2000/svg" xmlns:xlink="http://www.w3.org/1999/xlink"
	 x="0px" y="0px" viewBox="0 0 50.8 50.8" xml:space="preserve">
<g>
	<g>
		<path fill="none" stroke="#000000" stroke-width="0.8" stroke-miterlimit="10" d="M42.6,37.2c-2.6,2.4-11.3-1-19.1-8.4
			c-7.8-7.4-12.4-15.5-9.4-18.5c2.7-2.7,11.7,1.5,19.5,8.9C41.4,26.6,45.3,34.7,42.6,37.2z"/>
		<path fill="none" stroke="#000000" stroke-width="0.8" stroke-miterlimit="10" d="M7.3,4.4c0,0-11.4,15,6.6,32.8
			c2.5,2.2,10.4,9.5,21,10.5c3.7,0.4,5.8-0.1,8.9-1.2c2.6-1,4.4-2.5,5-2.8"/>
		<path fill="none" stroke="#000000" stroke-width="0.8" stroke-miterlimit="10" d="M10.2,33L0.8,43.1c0,0-1,1.1,0.2,1.5
			c1.2,0.5,5.2,1.9,15.2,1.3c1.9-0.1,4.9-0.4,5.6-1.3c0.4-0.5,0.7-1.1,0.7-1.1"/>
	</g>
	<path fill="none" stroke="#000000" stroke-width="0.8" stroke-miterlimit="10" d="M49.2,43.4c-3.7,3.3-17.1-1.3-28.5-12.1
		C9.3,20.4,3.3,8.3,7.6,4.1c3.9-3.9,16.9,2.4,28.3,13.2C47.3,28.2,53.1,39.9,49.2,43.4z"/>
</g>
</svg>
