<?xml version="1.0" encoding="utf-8"?>
<!-- Generator: Adobe Illustrator 19.2.1, SVG Export Plug-In . SVG Version: 6.00 Build 0)  -->
<svg version="1.2" baseProfile="tiny" id="Layer_1" xmlns="http://www.w3.org/2000/svg" xmlns:xlink="http://www.w3.org/1999/xlink"
	 x="0px" y="0px" viewBox="0 0 50.8 50.8" xml:space="preserve">
<path id="XMLID_18_" fill="none" stroke="#000000" stroke-width="0.8" stroke-miterlimit="10" d="M30.5,40.1c0,0-0.1,5.3,0,6.5
	c0.1,1.3-1.6,2.2-2.8,2.5c-1.3,0.4-0.4,1.3-2.2,1.3c-1.8,0-1-1-2.2-1.3c-1.2-0.3-2.8-1.3-2.8-2.5c0.1-1.3,0-6.5,0-6.5"/>
<path id="XMLID_17_" fill="none" stroke="#000000" stroke-width="0.9225" stroke-miterlimit="10" d="M19.2,46.9"/>
<path id="XMLID_16_" fill="none" stroke="#000000" stroke-width="0.8" stroke-miterlimit="10" d="M25.3,41.2c0,0-2.7-0.1-4.5-0.8
	c-0.9-0.3-1.6-0.8-1.7-1.6c0-6.3,0-13.5-5.7-21.1h12h-0.1h12c-5.7,7.7-5.7,14.8-5.7,21.1c-0.1,0.7-0.8,1.2-1.7,1.6
	c-1.8,0.7-4.5,0.8-4.5,0.8H25.3z"/>
<g id="XMLID_6_">
	
		<path id="XMLID_9_" fill="none" stroke="#000000" stroke-width="0.8" stroke-linecap="round" stroke-linejoin="round" stroke-miterlimit="10" d="
		M20,46.9c0.5,0.2,5.6,1.6,11-1"/>
	
		<path id="XMLID_8_" fill="none" stroke="#000000" stroke-width="0.8" stroke-linecap="round" stroke-linejoin="round" stroke-miterlimit="10" d="
		M20,45c0.5,0.2,5.6,1.6,11-1"/>
	
		<path id="XMLID_7_" fill="none" stroke="#000000" stroke-width="0.8" stroke-linecap="round" stroke-linejoin="round" stroke-miterlimit="10" d="
		M20,43c0.5,0.2,5.6,1.6,11-1"/>
</g>
<path id="XMLID_5_" fill="none" stroke="#000000" stroke-width="0.8" stroke-linecap="round" stroke-miterlimit="10" d="M25.4,5.7
	c3.2,0,14.5,0.3,12.2,0.2c-1.2,0,4.4,0.3,7.4,1.1c-0.3-6.8-19.6-6.7-19.6-6.7S6.1,0.3,5.8,7.1c2.9-0.9,8.6-1.2,7.4-1.1
	C10.9,6,22.2,5.7,25.4,5.7"/>
<path id="XMLID_4_" fill="none" stroke="#000000" stroke-width="0.8" stroke-miterlimit="10" d="M25.4,17.6h13.9
	c3.4-4.9,5.6-9.6,4.8-10.7c-0.4-1.1-18.8-1.3-18.8-1.3h0C25.4,5.7,7,5.9,6.7,7c-0.8,1.1,1.4,5.8,4.8,10.7H25.4"/>
</svg>
