<?xml version="1.0" encoding="utf-8"?>
<!-- Generator: Adobe Illustrator 19.2.1, SVG Export Plug-In . SVG Version: 6.00 Build 0)  -->
<svg version="1.2" baseProfile="tiny" id="Layer_1" xmlns="http://www.w3.org/2000/svg" xmlns:xlink="http://www.w3.org/1999/xlink"
	 x="0px" y="0px" viewBox="0 0 50 50" xml:space="preserve">
<g>
	<path fill="none" d="M21.2,46.9c0.4,0.5,1.2,0.9,1.9,1.1c0.7,0.2,0.9,0.5,1,0.8c0.1,0.2,0.2,0.3,0.9,0.4h0c0,0,0,0,0,0
		c0.7,0,0.7-0.1,0.9-0.4c0.1-0.3,0.3-0.6,1-0.8c1.1-0.3,2.2-1,2.2-1.8c0,0,0,0,0-0.1c-2,0.8-3.8,1-5.4,1
		C22.7,47.1,21.8,47,21.2,46.9z"/>
	<path fill="none" d="M20.9,43.3c0,0.3,0,0.7,0,1c1.4,0.3,4.5,0.7,8.1-0.8c0-0.3,0-0.7,0-1c-2,0.8-3.8,1-5.4,1
		C22.6,43.6,21.6,43.4,20.9,43.3z"/>
	<path fill="none" d="M20.9,40.7c0,0.4,0,1,0,1.7c1.4,0.3,4.7,0.6,8.1-0.8c0-0.4,0-0.7,0-1c-1.5,0.3-2.9,0.5-4.1,0.5
		C23.1,41.2,21.6,40.9,20.9,40.7z"/>
	<path fill="none" d="M41.4,5.9c-0.5-3.2-6.5-5-16.4-5c-10,0-15.9,1.8-16.4,5C11.2,6.1,24.8,7,41.4,5.9z"/>
	<path fill="none" d="M20.9,45.1c0,0.3,0,0.6,0,0.9c1.4,0.3,4.6,0.7,8.1-0.8c0-0.2,0-0.5,0-0.8c-1.9,0.7-3.8,1-5.4,1
		C22.6,45.4,21.6,45.3,20.9,45.1z"/>
	<path fill="none" d="M8.5,6.7c-0.1,2.8-0.1,3.7,2.7,6.7l1,1.1c3.3,3.6,5.4,5.8,5.7,6.7c0.3,0.9,0.9,4.6,0.9,11.7
		c0,5.6,0.6,6,1.4,6.7c0.2,0.1,0.3,0.3,0.5,0.4l0-0.1c0,0,3.9,1.2,8.7,0c0.1-0.1,0.3-0.2,0.4-0.3c0.8-0.7,1.4-1.1,1.4-6.7
		c0-7.1,0.6-10.7,0.9-11.7c0.3-0.9,2.3-3.1,5.7-6.7l1-1.1c2.8-3.1,2.9-4,2.7-6.7c-6.1,0.4-11.8,0.5-16.7,0.5
		C16.3,7.2,10.1,6.8,8.5,6.7z M30.7,20.6c0.1,0,0.2,0,0.2,0.2c0,0.1,0,0.2-0.2,0.2c-2.1,0.4-4.1,0.6-5.8,0.6c-3.4,0-5.6-0.6-5.7-0.6
		c-0.1,0-0.2-0.1-0.1-0.2c0-0.1,0.1-0.2,0.2-0.1C19.4,20.7,24.4,21.9,30.7,20.6z"/>
	<path fill="#010202" d="M20.1,45.8c-0.2,0-0.4,0.1-0.4,0.2c-0.1,0.2,0,0.4,0.2,0.5c0.1,0,0.2,0.1,0.3,0.1c0-0.2-0.1-0.3-0.1-0.5
		C20.1,46,20.1,45.9,20.1,45.8z"/>
	<path fill="#010202" d="M20.9,46c0,0.1,0,0.1,0,0.2c0,0.2,0.1,0.5,0.3,0.7c0.7,0.1,1.5,0.2,2.5,0.2c1.6,0,3.4-0.2,5.4-1
		c0-0.2,0-0.5,0-0.9C25.5,46.7,22.3,46.3,20.9,46z"/>
	<path fill="#010202" d="M20.1,44.1c-0.2,0-0.4,0-0.4,0.2c-0.1,0.2,0,0.4,0.2,0.5c0.1,0,0.1,0.1,0.2,0.1
		C20.1,44.7,20.1,44.4,20.1,44.1z"/>
	<path fill="#010202" d="M20.9,44.3c0,0.3,0,0.6,0,0.8c0.7,0.1,1.6,0.3,2.8,0.3c1.5,0,3.4-0.2,5.4-1c0-0.3,0-0.6,0-0.9
		C25.5,45,22.3,44.6,20.9,44.3z"/>
	<path fill="#010202" d="M20.9,42.5c0,0.3,0,0.5,0,0.8c0.7,0.1,1.6,0.3,2.7,0.3c1.5,0,3.4-0.2,5.4-1c0-0.3,0-0.6,0-0.9
		C25.6,43.1,22.4,42.8,20.9,42.5z"/>
	<path fill="#010202" d="M19.7,42.5c-0.1,0.2,0,0.4,0.2,0.5c0.1,0,0.1,0.1,0.2,0.1c0-0.3,0-0.6,0-0.8C20,42.2,19.8,42.3,19.7,42.5z"
		/>
	<path fill="#010202" d="M30.1,42.1c0.2-0.1,0.3-0.3,0.2-0.5c-0.1-0.2-0.3-0.2-0.4-0.2c0,0.3,0,0.5,0,0.9
		C29.9,42.2,30,42.2,30.1,42.1z"/>
	<path fill="#010202" d="M30.1,44c0.2-0.1,0.3-0.3,0.2-0.5c-0.1-0.2-0.3-0.2-0.4-0.2c0,0.3,0,0.6,0,0.9C29.9,44,30,44,30.1,44z"/>
	<path fill="#010202" d="M30.1,45.6c0.2-0.1,0.3-0.3,0.2-0.5c-0.1-0.2-0.3-0.3-0.4-0.2c0,0.3,0,0.6,0,0.9C30,45.7,30,45.7,30.1,45.6
		z"/>
	<path fill="#010202" d="M42.3,6.1C42.1,2.2,36,0.1,25,0.1C10.2,0.1,7.8,3.9,7.7,6.1l0,0.3c-0.2,3-0.2,4.1,2.9,7.5l1,1.1
		c2.6,2.8,5.2,5.6,5.5,6.4c0.3,1,0.9,4.9,0.9,11.4c0,5.7,0.6,6.5,1.7,7.3c0.1,0.1,0.3,0.2,0.4,0.3c0,0.3,0,1,0,1.8
		c0,0.3,0,0.6,0,0.8c0,0.3,0,0.7,0,1c0,0.3,0,0.6,0,0.8c0,0.3,0,0.6,0,0.8c0,0.1,0,0.2,0,0.3c0,0.2,0,0.4,0.1,0.5
		c0.3,1,1.5,1.8,2.7,2.1c0.3,0.1,0.4,0.2,0.5,0.4c0.2,0.4,0.5,0.8,1.6,0.8c0,0,0,0,0,0l0-0.4l0,0.4c0,0,0,0,0,0c1,0,1.3-0.3,1.6-0.8
		c0.1-0.2,0.2-0.3,0.5-0.4c1.4-0.4,2.8-1.4,2.8-2.7c0-0.1,0-0.2,0-0.3c0-0.2,0-0.5,0-0.9c0-0.3,0-0.5,0-0.8c0-0.3,0-0.6,0-0.9
		c0-0.3,0-0.7,0-1c0-0.3,0-0.6,0-0.9c0-0.4,0-0.7,0-0.9c0.1-0.1,0.3-0.2,0.4-0.3c1.1-0.9,1.7-1.6,1.7-7.3c0-6.5,0.5-10.4,0.9-11.4
		c0.3-0.8,2.9-3.6,5.5-6.4l1-1.1c3.1-3.4,3.1-4.5,2.9-7.5L42.3,6.1z M38.8,13.4l-1,1.1c-3.3,3.6-5.4,5.8-5.7,6.7
		c-0.3,0.9-0.9,4.6-0.9,11.7c0,5.6-0.6,6-1.4,6.7c-0.1,0.1-0.3,0.2-0.4,0.3c0,0,0,0,0,0l0.2,0.8c-0.2,0-0.4,0.1-0.5,0.1
		c0,0.2,0,0.6,0,1c0,0.3,0,0.6,0,0.9c0,0.3,0,0.7,0,1c0,0.3,0,0.6,0,0.9c0,0.3,0,0.6,0,0.8c0,0.4,0,0.6,0,0.9c0,0,0,0,0,0.1
		c0,0.8-1.1,1.5-2.2,1.8c-0.7,0.2-0.9,0.5-1,0.8c-0.1,0.2-0.2,0.4-0.9,0.4c0,0,0,0,0,0h0c-0.7,0-0.8-0.1-0.9-0.4
		c-0.1-0.3-0.3-0.6-1-0.8c-0.8-0.2-1.5-0.6-1.9-1.1c-0.2-0.2-0.3-0.5-0.3-0.7c0,0,0-0.1,0-0.2c0-0.2,0-0.5,0-0.9c0-0.3,0-0.5,0-0.8
		c0-0.3,0-0.7,0-1c0-0.3,0-0.5,0-0.8c0-0.7,0-1.3,0-1.7c-0.3-0.1-0.4-0.1-0.5-0.1l0.2-0.7c-0.2-0.2-0.3-0.3-0.5-0.4
		c-0.8-0.6-1.4-1.1-1.4-6.7c0-7.1-0.6-10.7-0.9-11.7c-0.3-0.9-2.4-3.1-5.7-6.7l-1-1.1c-2.8-3.1-2.9-4-2.7-6.7c-0.3,0-0.4,0-0.5,0
		l0.1-0.8c0,0,0.2,0,0.5,0c0.5-3.2,6.4-5,16.4-5c10,0,15.9,1.8,16.4,5c0.2,0,0.3,0,0.5,0L42,6.6c-0.2,0-0.3,0-0.5,0
		C41.7,9.4,41.6,10.3,38.8,13.4z"/>
	<path fill="#010202" d="M19.1,20.8c0,0.1,0,0.2,0.1,0.2c0,0,2.3,0.6,5.7,0.6c1.7,0,3.7-0.1,5.8-0.6c0.1,0,0.2-0.1,0.2-0.2
		c0-0.1-0.1-0.2-0.2-0.2c-6.2,1.3-11.2,0-11.3,0C19.2,20.6,19.1,20.7,19.1,20.8z"/>
	<path fill="#010202" d="M20.7,39.8L20.7,39.8l-0.2,0.8c0,0,0.2,0.1,0.5,0.1c0.7,0.2,2.1,0.5,4,0.5c1.2,0,2.6-0.1,4.1-0.5
		c0.2,0,0.4-0.1,0.5-0.1l-0.2-0.8c0,0,0,0,0,0C24.6,41.1,20.7,39.9,20.7,39.8z"/>
	<path fill="#010202" d="M41.9,5.8c-0.2,0-0.3,0-0.5,0C24.8,7,11.2,6.1,8.6,5.9c-0.3,0-0.5,0-0.5,0L8,6.6c0,0,0.2,0,0.5,0
		c1.7,0.1,7.8,0.5,16.3,0.5c4.9,0,10.6-0.1,16.7-0.5c0.2,0,0.3,0,0.5,0L41.9,5.8z"/>
</g>
</svg>
