<?xml version="1.0" encoding="utf-8"?>
<!-- Generator: Adobe Illustrator 19.2.1, SVG Export Plug-In . SVG Version: 6.00 Build 0)  -->
<svg version="1.2" baseProfile="tiny" id="Layer_1" xmlns="http://www.w3.org/2000/svg" xmlns:xlink="http://www.w3.org/1999/xlink"
	 x="0px" y="0px" viewBox="0 0 50 50" xml:space="preserve">
<g>
	<circle fill="none" cx="20.5" cy="31.1" r="4.2"/>
	<circle fill="none" cx="20.5" cy="21.2" r="0.6"/>
	<circle fill="none" cx="10.6" cy="31.1" r="0.6"/>
	<circle fill="none" cx="14.1" cy="24.7" r="0.6"/>
	<path fill="none" d="M2.4,31.1c0,10,8.1,18.1,18.1,18.1c10,0,18.1-8.1,18.1-18.1c0-10-8.1-18.1-18.1-18.1
		C10.5,13,2.4,21.1,2.4,31.1z M10.6,32.5c-0.8,0-1.4-0.6-1.4-1.4c0-0.8,0.6-1.4,1.4-1.4c0.8,0,1.4,0.6,1.4,1.4
		C12.1,31.9,11.4,32.5,10.6,32.5z M14.1,26.1c-0.8,0-1.4-0.6-1.4-1.4c0-0.8,0.6-1.4,1.4-1.4c0.8,0,1.4,0.6,1.4,1.4
		C15.6,25.5,14.9,26.1,14.1,26.1z M25.5,31.1c0,2.8-2.2,5-5,5c-2.8,0-5-2.2-5-5c0-2.8,2.2-5,5-5C23.3,26.1,25.5,28.3,25.5,31.1z
		 M21.9,21.2c0,0.8-0.6,1.4-1.4,1.4c-0.8,0-1.4-0.6-1.4-1.4c0-0.8,0.6-1.4,1.4-1.4C21.3,19.8,21.9,20.4,21.9,21.2z"/>
	<path d="M1.6,31.1c0,10.4,8.5,18.9,18.9,18.9c10.4,0,18.9-8.5,18.9-18.9c0-10.4-8.5-18.9-18.9-18.9C10.1,12.2,1.6,20.7,1.6,31.1z
		 M38.6,31.1c0,10-8.1,18.1-18.1,18.1c-10,0-18.1-8.1-18.1-18.1c0-10,8.1-18.1,18.1-18.1C30.5,13,38.6,21.1,38.6,31.1z"/>
	<path d="M28.6,0.1c-0.2-0.1-0.4,0.1-0.5,0.3c-0.1,0.2,0.1,0.4,0.3,0.5c8,2.1,15.1,7.5,19.2,14.7c0.1,0.1,0.2,0.2,0.3,0.2
		c0.1,0,0.1,0,0.2-0.1c0.2-0.1,0.3-0.4,0.1-0.5C44,7.7,36.9,2.2,28.6,0.1z"/>
	<path d="M43.1,17c0.1,0,0.1,0,0.2-0.1c0.2-0.1,0.3-0.4,0.2-0.5c-3.2-5.8-8.7-10.1-15.1-11.8c-0.2-0.1-0.4,0.1-0.5,0.3
		c-0.1,0.2,0.1,0.4,0.3,0.5c6.1,1.7,11.4,5.9,14.6,11.5C42.9,17,43,17,43.1,17z"/>
	<path d="M29.2,9.5c-0.2-0.1-0.4,0-0.5,0.2c-0.1,0.2,0,0.4,0.2,0.5c4,1.6,7.4,4.4,9.6,8c0.1,0.1,0.2,0.2,0.3,0.2
		c0.1,0,0.1,0,0.2-0.1c0.2-0.1,0.2-0.4,0.1-0.6C36.8,14.1,33.3,11.1,29.2,9.5z"/>
	<path d="M15.5,31.1c0,2.8,2.2,5,5,5c2.8,0,5-2.2,5-5c0-2.8-2.2-5-5-5C17.7,26.1,15.5,28.3,15.5,31.1z M24.7,31.1
		c0,2.3-1.9,4.2-4.2,4.2c-2.3,0-4.2-1.9-4.2-4.2c0-2.3,1.9-4.2,4.2-4.2C22.8,26.9,24.7,28.7,24.7,31.1z"/>
	<path d="M10.6,29.6c-0.8,0-1.4,0.6-1.4,1.4c0,0.8,0.6,1.4,1.4,1.4c0.8,0,1.4-0.6,1.4-1.4C12.1,30.3,11.4,29.6,10.6,29.6z
		 M10.6,31.7c-0.3,0-0.6-0.3-0.6-0.6c0-0.3,0.3-0.6,0.6-0.6c0.3,0,0.6,0.3,0.6,0.6C11.3,31.4,11,31.7,10.6,31.7z"/>
	<path d="M19.1,21.2c0,0.8,0.6,1.4,1.4,1.4c0.8,0,1.4-0.6,1.4-1.4c0-0.8-0.6-1.4-1.4-1.4C19.7,19.8,19.1,20.4,19.1,21.2z M21.1,21.2
		c0,0.3-0.3,0.6-0.6,0.6c-0.3,0-0.6-0.3-0.6-0.6c0-0.3,0.3-0.6,0.6-0.6C20.9,20.6,21.1,20.9,21.1,21.2z"/>
	<path d="M14.1,23.3c-0.8,0-1.4,0.6-1.4,1.4c0,0.8,0.6,1.4,1.4,1.4c0.8,0,1.4-0.6,1.4-1.4C15.6,23.9,14.9,23.3,14.1,23.3z
		 M14.1,25.3c-0.3,0-0.6-0.3-0.6-0.6c0-0.3,0.3-0.6,0.6-0.6c0.3,0,0.6,0.3,0.6,0.6C14.8,25.1,14.5,25.3,14.1,25.3z"/>
</g>
</svg>
