<?xml version="1.0" encoding="utf-8"?>
<!-- Generator: Adobe Illustrator 19.2.1, SVG Export Plug-In . SVG Version: 6.00 Build 0)  -->
<svg version="1.2" baseProfile="tiny" id="Layer_1" xmlns="http://www.w3.org/2000/svg" xmlns:xlink="http://www.w3.org/1999/xlink"
	 x="0px" y="0px" viewBox="0 0 50 50" xml:space="preserve">
<g>
	<circle fill="none" cx="16.9" cy="21.7" r="0.6"/>
	<circle fill="none" cx="10.8" cy="21.7" r="0.6"/>
	<circle fill="none" cx="16.9" cy="33.1" r="5.2"/>
	<circle fill="none" cx="23.1" cy="21.7" r="0.6"/>
	<path fill="none" d="M8.3,17c-0.3,0-7.4,0.1-7.4,7.4v17.3c0,0.3,0.1,7.4,7.4,7.4h17.3c0.3,0,7.4-0.1,7.4-7.4V24.4
		c0-0.3-0.1-7.4-7.4-7.4H8.3z M16.9,20.3c0.8,0,1.4,0.6,1.4,1.4c0,0.8-0.6,1.4-1.4,1.4c-0.8,0-1.4-0.6-1.4-1.4
		C15.5,20.9,16.2,20.3,16.9,20.3z M9.3,21.7c0-0.8,0.6-1.4,1.4-1.4c0.8,0,1.4,0.6,1.4,1.4c0,0.8-0.6,1.4-1.4,1.4
		C10,23.1,9.3,22.5,9.3,21.7z M16.9,39.1c-3.3,0-6-2.7-6-6c0-3.3,2.7-6,6-6c3.3,0,6,2.7,6,6C23,36.4,20.3,39.1,16.9,39.1z
		 M23.1,23.1c-0.8,0-1.4-0.6-1.4-1.4c0-0.8,0.6-1.4,1.4-1.4c0.8,0,1.4,0.6,1.4,1.4C24.5,22.5,23.9,23.1,23.1,23.1z"/>
	<path d="M8.3,16.2c-0.1,0-8.2,0.1-8.2,8.2v17.3c0,0.1,0.1,8.2,8.2,8.2h17.3c0.1,0,8.2-0.1,8.2-8.2V24.4c0-0.1-0.1-8.2-8.2-8.2H8.3z
		 M33,24.4v17.3c0,7.3-7.1,7.4-7.4,7.4H8.3c-7.3,0-7.4-7.1-7.4-7.4V24.4C0.9,17.1,8,17,8.3,17h17.3C32.9,17,33,24.1,33,24.4z"/>
	<path d="M16.9,27c-3.3,0-6,2.7-6,6c0,3.3,2.7,6,6,6c3.3,0,6-2.7,6-6C23,29.7,20.3,27,16.9,27z M16.9,38.3c-2.9,0-5.2-2.3-5.2-5.2
		c0-2.9,2.3-5.2,5.2-5.2s5.2,2.3,5.2,5.2C22.2,35.9,19.8,38.3,16.9,38.3z"/>
	<path d="M31,0.1c-0.2,0-0.4,0.2-0.4,0.4c0,0.2,0.2,0.4,0.4,0.4C40.8,1.3,48.6,9,49.1,18.8c0,0.2,0.2,0.4,0.4,0.4c0,0,0,0,0,0
		c0.2,0,0.4-0.2,0.4-0.4C49.3,8.6,41.2,0.6,31,0.1z"/>
	<path d="M44,18.8c0,0.2,0.2,0.4,0.4,0.4c0,0,0,0,0,0c0.2,0,0.4-0.2,0.4-0.4c-0.6-7.2-6.5-13-13.7-13.5c-0.2,0-0.4,0.2-0.4,0.4
		C30.6,5.8,30.8,6,31,6C37.8,6.5,43.4,12,44,18.8z"/>
	<path d="M30.6,10.7c0,0.2,0.1,0.4,0.4,0.4c4.1,0.4,7.4,3.6,7.9,7.7c0,0.2,0.2,0.3,0.4,0.3c0,0,0,0,0.1,0c0.2,0,0.4-0.2,0.3-0.4
		c-0.6-4.5-4.1-7.9-8.6-8.4C30.9,10.3,30.6,10.5,30.6,10.7z"/>
	<path d="M16.9,23.1c0.8,0,1.4-0.6,1.4-1.4c0-0.8-0.6-1.4-1.4-1.4c-0.8,0-1.4,0.6-1.4,1.4C15.5,22.5,16.2,23.1,16.9,23.1z
		 M16.9,21.1c0.3,0,0.6,0.3,0.6,0.6c0,0.3-0.3,0.6-0.6,0.6c-0.3,0-0.6-0.3-0.6-0.6C16.3,21.3,16.6,21.1,16.9,21.1z"/>
	<path d="M12.2,21.7c0-0.8-0.6-1.4-1.4-1.4c-0.8,0-1.4,0.6-1.4,1.4c0,0.8,0.6,1.4,1.4,1.4C11.5,23.1,12.2,22.5,12.2,21.7z
		 M10.8,22.3c-0.3,0-0.6-0.3-0.6-0.6c0-0.3,0.3-0.6,0.6-0.6c0.3,0,0.6,0.3,0.6,0.6C11.4,22,11.1,22.3,10.8,22.3z"/>
	<path d="M23.1,20.3c-0.8,0-1.4,0.6-1.4,1.4c0,0.8,0.6,1.4,1.4,1.4c0.8,0,1.4-0.6,1.4-1.4C24.5,20.9,23.9,20.3,23.1,20.3z
		 M23.1,22.3c-0.3,0-0.6-0.3-0.6-0.6c0-0.3,0.3-0.6,0.6-0.6c0.3,0,0.6,0.3,0.6,0.6C23.7,22,23.5,22.3,23.1,22.3z"/>
</g>
</svg>
