<?xml version="1.0" encoding="utf-8"?>
<!-- Generator: Adobe Illustrator 19.2.1, SVG Export Plug-In . SVG Version: 6.00 Build 0)  -->
<svg version="1.2" baseProfile="tiny" id="Layer_1" xmlns="http://www.w3.org/2000/svg" xmlns:xlink="http://www.w3.org/1999/xlink"
	 x="0px" y="0px" viewBox="0 0 50 50" xml:space="preserve">
<g>
	<path fill="none" d="M48.5,16.9L23.1,6.1c-0.1,0-0.1,0-0.1,0c-0.1,0-0.1,0-0.2,0L1.5,18c-0.3,0.2-0.5,0.7-0.5,1.3V27L20.3,16
		c1.4-0.8,3.1-0.9,4.6-0.3L49.1,26l0-7.7C49.1,17.6,48.9,17,48.5,16.9z"/>
	<path fill="none" d="M1.5,34.9L25,44c0.1,0,0.2,0,0.3,0l23.2-10.3c0.4-0.2,0.6-0.7,0.6-1.3c0-0.6-0.2-1.2-0.6-1.3L23.1,20.2
		c-0.1,0-0.1,0-0.1,0c-0.1,0-0.1,0-0.2,0.1l-21.3,12c-0.4,0.2-0.6,0.8-0.5,1.5C1,34.3,1.2,34.8,1.5,34.9z"/>
	<path d="M48.8,16.1L23.4,5.3c-0.3-0.1-0.7-0.1-1.1,0l-21.3,12c-0.6,0.3-1,1.1-1,2v9l20.6-11.6c1.2-0.7,2.7-0.8,3.9-0.2l25.2,10.7
		l0-8.9C49.9,17.5,49.6,16.5,48.8,16.1z M49.1,26L25,15.7c-1.5-0.6-3.2-0.5-4.6,0.3L0.9,27v-7.6c0-0.6,0.2-1.1,0.5-1.3l21.3-12
		c0.1,0,0.1,0,0.2,0c0,0,0.1,0,0.1,0l25.4,10.8c0.4,0.1,0.6,0.7,0.6,1.4L49.1,26z"/>
	<path d="M24.7,44.7c0.1,0.1,0.3,0.1,0.4,0.1c0.2,0,0.3,0,0.5-0.1l23.2-10.3c0.7-0.3,1.1-1.1,1.1-2.1c0-0.8-0.3-1.7-1.1-2L23.4,19.5
		c-0.4-0.1-0.7-0.1-1,0.1l-21.3,12c-0.6,0.4-1,1.2-0.9,2.2c0.1,0.9,0.5,1.6,1.1,1.9L24.7,44.7z M1.4,32.3l21.3-12
		c0.1,0,0.1-0.1,0.2-0.1c0,0,0.1,0,0.1,0L48.5,31c0.4,0.2,0.6,0.7,0.6,1.3c0,0.6-0.2,1.2-0.6,1.3L25.3,44c-0.1,0-0.2,0-0.3,0
		L1.5,34.9c-0.3-0.1-0.6-0.6-0.6-1.2C0.9,33.1,1.1,32.5,1.4,32.3z"/>
</g>
</svg>
