<?xml version="1.0" encoding="utf-8"?>
<!-- Generator: Adobe Illustrator 19.2.1, SVG Export Plug-In . SVG Version: 6.00 Build 0)  -->
<svg version="1.2" baseProfile="tiny" id="Layer_1" xmlns="http://www.w3.org/2000/svg" xmlns:xlink="http://www.w3.org/1999/xlink"
	 x="0px" y="0px" viewBox="0 0 50.9 50.9" xml:space="preserve">
<g>
	<path fill="none" stroke="#000000" stroke-width="0.8" stroke-miterlimit="10" d="M39.1,50.5H11.8c-1.1,0-1.9-0.9-1.9-1.9V2.4
		c0-1.1,0.9-1.9,1.9-1.9h27.3c1.1,0,1.9,0.9,1.9,1.9v46.1C41,49.6,40.2,50.5,39.1,50.5z"/>
	<path fill="none" stroke="#000000" stroke-width="0.8" stroke-miterlimit="10" d="M31.3,44.5H19.6c-0.8,0-1.5-0.7-1.5-1.5V7.9
		c0-0.8,0.7-1.5,1.5-1.5h11.7c0.8,0,1.5,0.7,1.5,1.5V43C32.8,43.9,32.1,44.5,31.3,44.5z"/>
	<line fill="none" stroke="#000000" stroke-width="0.8" stroke-miterlimit="10" x1="18.1" y1="18.4" x2="32.8" y2="18.4"/>
	<line fill="none" stroke="#000000" stroke-width="0.8" stroke-miterlimit="10" x1="18.1" y1="25.5" x2="32.8" y2="25.5"/>
	<line fill="none" stroke="#000000" stroke-width="0.8" stroke-miterlimit="10" x1="18.1" y1="32.9" x2="32.8" y2="32.9"/>
</g>
</svg>
