<?xml version="1.0" encoding="UTF-8" standalone="no"?>
<svg
   viewBox="0 0 24 24"
   fill="#44739e"
   version="1.1"
   id="svg8"
   sodipodi:docname="hue_button.svg"
   inkscape:version="1.1.2 (0a00cf5339, 2022-02-04)"
   xmlns:inkscape="http://www.inkscape.org/namespaces/inkscape"
   xmlns:sodipodi="http://sodipodi.sourceforge.net/DTD/sodipodi-0.dtd"
   xmlns="http://www.w3.org/2000/svg"
   xmlns:svg="http://www.w3.org/2000/svg">
  <defs
     id="defs12" />
  <sodipodi:namedview
     id="namedview10"
     pagecolor="#ffffff"
     bordercolor="#666666"
     borderopacity="1.0"
     inkscape:pageshadow="2"
     inkscape:pageopacity="0.0"
     inkscape:pagecheckerboard="0"
     showgrid="false"
     inkscape:zoom="34.583333"
     inkscape:cx="7.6626506"
     inkscape:cy="12"
     inkscape:window-width="1920"
     inkscape:window-height="1012"
     inkscape:window-x="0"
     inkscape:window-y="0"
     inkscape:window-maximized="1"
     inkscape:current-layer="svg8" />
  <title
     id="title2">hue:button</title>
  <desc
     id="desc4">Source: https://github.com/arallsopp/hass-hue-icons</desc>
  <path
     d="M22.26,0.81H1.83c-0.55,0-1,0.45-1,1v20.43c0,0.55,0.45,1,1,1h20.43c0.55,0,1-0.45,1-1V1.81 C23.26,1.25,22.81,0.81,22.26,0.81z M22.26,22.24H1.83V1.81h20.43V22.24z M12.04,18.08c3.36,0,6.08-2.72,6.08-6.08 c0-3.36-2.72-6.08-6.08-6.08S5.96,8.64,5.96,12c0,0,0,0,0,0C5.96,15.36,8.68,18.08,12.04,18.08z M12.04,6.92 c2.81,0,5.08,2.28,5.08,5.08c0,2.81-2.28,5.08-5.08,5.08S6.96,14.81,6.96,12c0,0,0,0,0,0C6.96,9.19,9.24,6.92,12.04,6.92z"
     id="path6"
     style="fill:#000000" />
</svg>
