<?xml version="1.0" encoding="utf-8"?>
<!-- Generator: Adobe Illustrator 19.2.1, SVG Export Plug-In . SVG Version: 6.00 Build 0)  -->
<svg version="1.2" baseProfile="tiny" id="Layer_1" xmlns="http://www.w3.org/2000/svg" xmlns:xlink="http://www.w3.org/1999/xlink"
	 x="0px" y="0px" viewBox="0 0 50.2 50.2" xml:space="preserve">
<g id="Layer_2_1_">
	<g>
		<line fill="none" stroke="#13110C" stroke-width="0.3194" stroke-miterlimit="10" x1="24.6" y1="26.9" x2="26.5" y2="29.8"/>
		<path fill="none" stroke="#13110C" stroke-width="0.3194" stroke-miterlimit="10" d="M23.7,30.3"/>
		<line fill="none" stroke="#13110C" stroke-width="0.3194" stroke-miterlimit="10" x1="23.7" y1="30.3" x2="26.2" y2="29.4"/>
		<line fill="none" stroke="#13110C" stroke-width="0.3194" stroke-miterlimit="10" x1="25.5" y1="29.8" x2="25.5" y2="35.8"/>
		<line fill="none" stroke="#13110C" stroke-width="0.3194" stroke-miterlimit="10" x1="24.4" y1="32" x2="24.6" y2="27.7"/>
		<line fill="none" stroke="#13110C" stroke-width="0.3194" stroke-miterlimit="10" x1="27.1" y1="30.9" x2="35.3" y2="26.6"/>
		<line fill="none" stroke="#13110C" stroke-width="0.3194" stroke-miterlimit="10" x1="28.7" y1="32" x2="30.7" y2="26.1"/>
		<line fill="none" stroke="#13110C" stroke-width="0.3194" stroke-miterlimit="10" x1="32.5" y1="30.6" x2="29.1" y2="25.7"/>
		<line fill="none" stroke="#13110C" stroke-width="0.3194" stroke-miterlimit="10" x1="29.7" y1="33.5" x2="29.7" y2="26.9"/>
		<line fill="none" stroke="#13110C" stroke-width="0.3194" stroke-miterlimit="10" x1="31.9" y1="33.5" x2="25.7" y2="28.6"/>
		<line fill="none" stroke="#13110C" stroke-width="0.3194" stroke-miterlimit="10" x1="25.1" y1="34.8" x2="29.1" y2="26.6"/>
		<line fill="none" stroke="#13110C" stroke-width="0.3194" stroke-miterlimit="10" x1="32" y1="34.8" x2="24.4" y2="34.4"/>
		<line fill="none" stroke="#13110C" stroke-width="0.3194" stroke-miterlimit="10" x1="33.8" y1="34.1" x2="26.2" y2="33.3"/>
		<line fill="none" stroke="#13110C" stroke-width="0.3194" stroke-miterlimit="10" x1="29.7" y1="34.1" x2="22.6" y2="30.2"/>
		<line fill="none" stroke="#13110C" stroke-width="0.3194" stroke-miterlimit="10" x1="14.9" y1="27.7" x2="26.5" y2="29.2"/>
		<line fill="none" stroke="#13110C" stroke-width="0.3194" stroke-miterlimit="10" x1="22.6" y1="36.7" x2="25.9" y2="30.9"/>
		<line fill="none" stroke="#13110C" stroke-width="0.3194" stroke-miterlimit="10" x1="22.3" y1="33.3" x2="19.2" y2="34.8"/>
		<line fill="none" stroke="#13110C" stroke-width="0.3194" stroke-miterlimit="10" x1="19.9" y1="31.4" x2="22.6" y2="34.6"/>
		<polyline fill="none" stroke="#13110C" stroke-width="0.3194" stroke-miterlimit="10" points="21,21.4 22.6,33.8 28.1,34 		"/>
		<polyline fill="none" stroke="#13110C" stroke-width="0.3194" stroke-miterlimit="10" points="16.4,33.6 23.4,27.7 25.1,25.7 
			22.3,31.2 		"/>
		<polyline fill="none" stroke="#13110C" stroke-width="0.3194" stroke-miterlimit="10" points="25.5,25 28,20.1 24.6,21.9 		"/>
		<line fill="none" stroke="#13110C" stroke-width="0.3194" stroke-miterlimit="10" x1="24.6" y1="22.5" x2="22" y2="27.6"/>
		<line fill="none" stroke="#13110C" stroke-width="0.3194" stroke-miterlimit="10" x1="26.5" y1="24" x2="32.8" y2="24.5"/>
		<line fill="none" stroke="#13110C" stroke-width="0.3194" stroke-miterlimit="10" x1="27.3" y1="24.5" x2="29.1" y2="25"/>
		<line fill="none" stroke="#13110C" stroke-width="0.3194" stroke-miterlimit="10" x1="28" y1="25.9" x2="29.1" y2="25.9"/>
		<line fill="none" stroke="#13110C" stroke-width="0.3194" stroke-miterlimit="10" x1="29.6" y1="28.6" x2="20.7" y2="19.7"/>
		<line fill="none" stroke="#13110C" stroke-width="0.3194" stroke-miterlimit="10" x1="19" y1="26.1" x2="21.8" y2="28.1"/>
		<polyline fill="none" stroke="#13110C" stroke-width="0.3194" stroke-miterlimit="10" points="26.5,30.2 25.5,25.3 24.6,20.6 		
			"/>
		<line fill="none" stroke="#13110C" stroke-width="0.3194" stroke-miterlimit="10" x1="22.5" y1="26.6" x2="25.1" y2="24.7"/>
		<line fill="none" stroke="#13110C" stroke-width="0.3194" stroke-miterlimit="10" x1="26.2" y1="28.1" x2="28" y2="27.4"/>
		<line fill="none" stroke="#13110C" stroke-width="0.3194" stroke-miterlimit="10" x1="24.8" y1="27.3" x2="31.4" y2="25.9"/>
		<line fill="none" stroke="#13110C" stroke-width="0.3194" stroke-miterlimit="10" x1="23.4" y1="32.2" x2="18.5" y2="28.7"/>
		<line fill="none" stroke="#13110C" stroke-width="0.3194" stroke-miterlimit="10" x1="16.8" y1="26.1" x2="17.7" y2="31.7"/>
		<line fill="none" stroke="#13110C" stroke-width="0.3194" stroke-miterlimit="10" x1="17.1" y1="31.2" x2="19.9" y2="29.1"/>
		<line fill="none" stroke="#13110C" stroke-width="0.3194" stroke-miterlimit="10" x1="20.4" y1="29" x2="17.1" y2="24.5"/>
		<line fill="none" stroke="#13110C" stroke-width="0.3194" stroke-miterlimit="10" x1="13.5" y1="31.4" x2="16.4" y2="31.2"/>
		<line fill="none" stroke="#13110C" stroke-width="0.3194" stroke-miterlimit="10" x1="15.2" y1="32.8" x2="20.4" y2="33.3"/>
		<line fill="none" stroke="#13110C" stroke-width="0.3194" stroke-miterlimit="10" x1="21.2" y1="37.5" x2="21" y2="31.2"/>
		<line fill="none" stroke="#13110C" stroke-width="0.3194" stroke-miterlimit="10" x1="25.9" y1="36.7" x2="22.9" y2="34.8"/>
		<line fill="none" stroke="#13110C" stroke-width="0.3194" stroke-miterlimit="10" x1="25.2" y1="36.9" x2="28.1" y2="34.8"/>
		<line fill="none" stroke="#13110C" stroke-width="0.3194" stroke-miterlimit="10" x1="21.8" y1="32" x2="24.3" y2="33"/>
		<line fill="none" stroke="#13110C" stroke-width="0.3194" stroke-miterlimit="10" x1="30" y1="31.5" x2="37.3" y2="30.3"/>
		<line fill="none" stroke="#13110C" stroke-width="0.3194" stroke-miterlimit="10" x1="27.1" y1="32.2" x2="38.6" y2="32.5"/>
		<line fill="none" stroke="#13110C" stroke-width="0.3194" stroke-miterlimit="10" x1="36" y1="33" x2="28.2" y2="33"/>
		<line fill="none" stroke="#13110C" stroke-width="0.3194" stroke-miterlimit="10" x1="34" y1="29.2" x2="31.9" y2="30.4"/>
		<line fill="none" stroke="#13110C" stroke-width="0.3194" stroke-miterlimit="10" x1="27.1" y1="29.2" x2="35" y2="30.4"/>
		<line fill="none" stroke="#13110C" stroke-width="0.3194" stroke-miterlimit="10" x1="36.8" y1="29.4" x2="32.9" y2="30.9"/>
		<line fill="none" stroke="#13110C" stroke-width="0.3194" stroke-miterlimit="10" x1="37.5" y1="26.6" x2="31.2" y2="32.3"/>
		<line fill="none" stroke="#13110C" stroke-width="0.3194" stroke-miterlimit="10" x1="41.5" y1="30.9" x2="34.4" y2="25.9"/>
		<line fill="none" stroke="#13110C" stroke-width="0.3194" stroke-miterlimit="10" x1="32.9" y1="27.8" x2="26.2" y2="17.6"/>
		<line fill="none" stroke="#13110C" stroke-width="0.3194" stroke-miterlimit="10" x1="33.2" y1="21.8" x2="32.8" y2="29"/>
		<line fill="none" stroke="#13110C" stroke-width="0.3194" stroke-miterlimit="10" x1="34.4" y1="36.2" x2="35.6" y2="29.8"/>
		<line fill="none" stroke="#13110C" stroke-width="0.3194" stroke-miterlimit="10" x1="26.6" y1="36.9" x2="30.7" y2="34.8"/>
		<line fill="none" stroke="#13110C" stroke-width="0.3194" stroke-miterlimit="10" x1="30.2" y1="36.2" x2="32.1" y2="37.5"/>
		<line fill="none" stroke="#13110C" stroke-width="0.3194" stroke-miterlimit="10" x1="32.1" y1="35.8" x2="33.8" y2="33.5"/>
		<line fill="none" stroke="#13110C" stroke-width="0.3194" stroke-miterlimit="10" x1="38.1" y1="33.6" x2="33.4" y2="34.1"/>
		<line fill="none" stroke="#13110C" stroke-width="0.3194" stroke-miterlimit="10" x1="38.6" y1="35.1" x2="32.1" y2="33.5"/>
		<line fill="none" stroke="#13110C" stroke-width="0.3194" stroke-miterlimit="10" x1="38.6" y1="34.4" x2="34.4" y2="33.3"/>
		<line fill="none" stroke="#13110C" stroke-width="0.3194" stroke-miterlimit="10" x1="37" y1="31.7" x2="39.6" y2="31.7"/>
		<line fill="none" stroke="#13110C" stroke-width="0.3194" stroke-miterlimit="10" x1="40.2" y1="32.5" x2="34" y2="29.8"/>
		<line fill="none" stroke="#13110C" stroke-width="0.3194" stroke-miterlimit="10" x1="38.3" y1="32.3" x2="37.9" y2="28.1"/>
		<line fill="none" stroke="#13110C" stroke-width="0.3194" stroke-miterlimit="10" x1="35.3" y1="28.1" x2="29.7" y2="27.6"/>
		<line fill="none" stroke="#13110C" stroke-width="0.3194" stroke-miterlimit="10" x1="19.7" y1="37.3" x2="19" y2="33.5"/>
		<line fill="none" stroke="#13110C" stroke-width="0.3194" stroke-miterlimit="10" x1="19.2" y1="35.7" x2="18.1" y2="33.3"/>
		<line fill="none" stroke="#13110C" stroke-width="0.3194" stroke-miterlimit="10" x1="19.6" y1="36.7" x2="17.7" y2="34.8"/>
		<line fill="none" stroke="#13110C" stroke-width="0.3194" stroke-miterlimit="10" x1="19.2" y1="36.4" x2="14.9" y2="36.4"/>
		<line fill="none" stroke="#13110C" stroke-width="0.3194" stroke-miterlimit="10" x1="20.4" y1="36.2" x2="19.3" y2="36.4"/>
		<line fill="none" stroke="#13110C" stroke-width="0.3194" stroke-miterlimit="10" x1="20.7" y1="35.7" x2="20.7" y2="36.9"/>
		<line fill="none" stroke="#13110C" stroke-width="0.3194" stroke-miterlimit="10" x1="23" y1="35.7" x2="18.5" y2="37.7"/>
		<line fill="none" stroke="#13110C" stroke-width="0.3194" stroke-miterlimit="10" x1="22.1" y1="37.7" x2="22.1" y2="36.7"/>
		<polyline fill="none" stroke="#13110C" stroke-width="0.3194" stroke-miterlimit="10" points="24.9,37.3 23.7,35.8 16.1,31.4 		
			"/>
		<polyline fill="none" stroke="#13110C" stroke-width="0.3194" stroke-miterlimit="10" points="14.9,34.5 16.1,34.5 18.6,34.5 		
			"/>
		<path fill="none" stroke="#13110C" stroke-width="0.3194" stroke-miterlimit="10" d="M16.1,36.9"/>
		<line fill="none" stroke="#13110C" stroke-width="0.3194" stroke-miterlimit="10" x1="16.1" y1="36.4" x2="16.1" y2="34.5"/>
		<line fill="none" stroke="#13110C" stroke-width="0.3194" stroke-miterlimit="10" x1="29.1" y1="36.9" x2="30.8" y2="35.7"/>
		<line fill="none" stroke="#13110C" stroke-width="0.3194" stroke-miterlimit="10" x1="28.6" y1="36.9" x2="27.3" y2="37"/>
		<line fill="none" stroke="#13110C" stroke-width="0.3194" stroke-miterlimit="10" x1="26.6" y1="38.2" x2="24.6" y2="36.3"/>
		<line fill="none" stroke="#13110C" stroke-width="0.3194" stroke-miterlimit="10" x1="29.1" y1="38" x2="29.1" y2="37.2"/>
		<line fill="none" stroke="#13110C" stroke-width="0.3194" stroke-miterlimit="10" x1="30.4" y1="37.9" x2="30.7" y2="37"/>
		<line fill="none" stroke="#13110C" stroke-width="0.3194" stroke-miterlimit="10" x1="22.6" y1="38" x2="30.8" y2="36.9"/>
		<line fill="none" stroke="#13110C" stroke-width="0.3194" stroke-miterlimit="10" x1="34.4" y1="37" x2="31.9" y2="35.4"/>
		<polyline fill="none" stroke="#13110C" stroke-width="0.3194" stroke-miterlimit="10" points="36.5,34.8 32.9,37.4 27.5,36.4 
			25.9,35.4 		"/>
		<line fill="none" stroke="#13110C" stroke-width="0.3194" stroke-miterlimit="10" x1="14.9" y1="35.8" x2="14.9" y2="31.5"/>
		<line fill="none" stroke="#13110C" stroke-width="0.3194" stroke-miterlimit="10" x1="16.1" y1="29.5" x2="10.8" y2="31.4"/>
		<line fill="none" stroke="#13110C" stroke-width="0.3194" stroke-miterlimit="10" x1="14.3" y1="28.1" x2="13.7" y2="33.5"/>
		<line fill="none" stroke="#13110C" stroke-width="0.3194" stroke-miterlimit="10" x1="14.3" y1="34.5" x2="13.5" y2="31.2"/>
		<line fill="none" stroke="#13110C" stroke-width="0.3194" stroke-miterlimit="10" x1="12.6" y1="35.1" x2="12.8" y2="32.3"/>
		<line fill="none" stroke="#13110C" stroke-width="0.3194" stroke-miterlimit="10" x1="12.1" y1="33.3" x2="15.7" y2="33.6"/>
		<line fill="none" stroke="#13110C" stroke-width="0.3194" stroke-miterlimit="10" x1="13.4" y1="36.1" x2="15.5" y2="34.1"/>
		<line fill="none" stroke="#13110C" stroke-width="0.3194" stroke-miterlimit="10" x1="12.4" y1="35.8" x2="13.2" y2="35.1"/>
		<line fill="none" stroke="#13110C" stroke-width="0.3194" stroke-miterlimit="10" x1="9.2" y1="35.1" x2="10.6" y2="32.3"/>
		<path fill="none" stroke="#13110C" stroke-width="0.3194" stroke-miterlimit="10" d="M9.2,31.4c0.3,0.1,2,1.6,2,1.6"/>
		<line fill="none" stroke="#13110C" stroke-width="0.3194" stroke-miterlimit="10" x1="11.2" y1="31.7" x2="12.1" y2="27.1"/>
		<line fill="none" stroke="#13110C" stroke-width="0.3194" stroke-miterlimit="10" x1="13.5" y1="29.1" x2="9.9" y2="22.1"/>
		<line fill="none" stroke="#13110C" stroke-width="0.3194" stroke-miterlimit="10" x1="12.8" y1="27.7" x2="14.5" y2="27.6"/>
		<line fill="none" stroke="#13110C" stroke-width="0.3194" stroke-miterlimit="10" x1="14.9" y1="25.7" x2="16.1" y2="29"/>
		<line fill="none" stroke="#13110C" stroke-width="0.3194" stroke-miterlimit="10" x1="34.6" y1="31.1" x2="33.2" y2="33.4"/>
		<line fill="none" stroke="#13110C" stroke-width="0.3194" stroke-miterlimit="10" x1="19.9" y1="25.3" x2="19.3" y2="23.5"/>
		<line fill="none" stroke="#13110C" stroke-width="0.3194" stroke-miterlimit="10" x1="19.9" y1="23" x2="24.8" y2="22.5"/>
		<line fill="none" stroke="#13110C" stroke-width="0.3194" stroke-miterlimit="10" x1="25.5" y1="20.4" x2="19.7" y2="26.7"/>
		<line fill="none" stroke="#13110C" stroke-width="0.3194" stroke-miterlimit="10" x1="18.1" y1="28.1" x2="18.1" y2="20.9"/>
		<line fill="none" stroke="#13110C" stroke-width="0.3194" stroke-miterlimit="10" x1="16.4" y1="30.4" x2="18.7" y2="27.8"/>
		<line fill="none" stroke="#13110C" stroke-width="0.3194" stroke-miterlimit="10" x1="14.9" y1="26.9" x2="17.6" y2="24.7"/>
		<polyline fill="none" stroke="#13110C" stroke-width="0.3194" stroke-miterlimit="10" points="20.7,21.8 16.1,24.8 15.7,22.1 		
			"/>
		<line fill="none" stroke="#13110C" stroke-width="0.3194" stroke-miterlimit="10" x1="21.5" y1="19.5" x2="17.8" y2="24.3"/>
		<line fill="none" stroke="#13110C" stroke-width="0.3194" stroke-miterlimit="10" x1="24.3" y1="19.5" x2="21" y2="20.6"/>
		<line fill="none" stroke="#13110C" stroke-width="0.3194" stroke-miterlimit="10" x1="24.2" y1="21.9" x2="22.6" y2="16.6"/>
		<line fill="none" stroke="#13110C" stroke-width="0.3194" stroke-miterlimit="10" x1="22.1" y1="18.5" x2="29.1" y2="20.6"/>
		<line fill="none" stroke="#13110C" stroke-width="0.3194" stroke-miterlimit="10" x1="29.1" y1="18" x2="28.6" y2="19.5"/>
		<polyline fill="none" stroke="#13110C" stroke-width="0.3194" stroke-miterlimit="10" points="25.2,16.9 30.7,19.5 25.4,17.6 		
			"/>
		<line fill="none" stroke="#13110C" stroke-width="0.3194" stroke-miterlimit="10" x1="30.8" y1="18" x2="29.1" y2="18.2"/>
		<line fill="none" stroke="#13110C" stroke-width="0.3194" stroke-miterlimit="10" x1="38.9" y1="23.3" x2="25.2" y2="22.5"/>
		<polyline fill="none" stroke="#13110C" stroke-width="0.3194" stroke-miterlimit="10" points="21.8,24.3 18.5,25.8 20.5,22.5 		
			"/>
		<line fill="none" stroke="#13110C" stroke-width="0.3194" stroke-miterlimit="10" x1="21.5" y1="21.8" x2="18.1" y2="18.5"/>
		<line fill="none" stroke="#13110C" stroke-width="0.3194" stroke-miterlimit="10" x1="17.3" y1="19.3" x2="20.5" y2="21.2"/>
		<polyline fill="none" stroke="#13110C" stroke-width="0.3194" stroke-miterlimit="10" points="16.8,20.1 19.8,21.7 17.6,24 
			15.5,18.9 		"/>
		<line fill="none" stroke="#13110C" stroke-width="0.3194" stroke-miterlimit="10" x1="15.2" y1="26.6" x2="16.1" y2="18.7"/>
		<line fill="none" stroke="#13110C" stroke-width="0.3194" stroke-miterlimit="10" x1="14" y1="23.7" x2="15.2" y2="28.1"/>
		<line fill="none" stroke="#13110C" stroke-width="0.3194" stroke-miterlimit="10" x1="10.2" y1="28.3" x2="12.4" y2="21.9"/>
		<line fill="none" stroke="#13110C" stroke-width="0.3194" stroke-miterlimit="10" x1="14.9" y1="22.7" x2="15.5" y2="24"/>
		<line fill="none" stroke="#13110C" stroke-width="0.3194" stroke-miterlimit="10" x1="11.7" y1="22.1" x2="15.9" y2="20"/>
		<line fill="none" stroke="#13110C" stroke-width="0.3194" stroke-miterlimit="10" x1="13.9" y1="17.3" x2="12.4" y2="21.5"/>
		<line fill="none" stroke="#13110C" stroke-width="0.3194" stroke-miterlimit="10" x1="10.4" y1="18.9" x2="13.5" y2="22.4"/>
		<line fill="none" stroke="#13110C" stroke-width="0.3194" stroke-miterlimit="10" x1="12.8" y1="22.5" x2="13.9" y2="24.1"/>
		<line fill="none" stroke="#13110C" stroke-width="0.3194" stroke-miterlimit="10" x1="14.3" y1="23.3" x2="13.2" y2="26.9"/>
		<line fill="none" stroke="#13110C" stroke-width="0.3194" stroke-miterlimit="10" x1="20.5" y1="26.7" x2="22.9" y2="25.6"/>
		<line fill="none" stroke="#13110C" stroke-width="0.3194" stroke-miterlimit="10" x1="20.8" y1="23.6" x2="25.3" y2="24"/>
		<line fill="none" stroke="#13110C" stroke-width="0.3194" stroke-miterlimit="10" x1="30.2" y1="21" x2="25.7" y2="25.1"/>
		<line fill="none" stroke="#13110C" stroke-width="0.3194" stroke-miterlimit="10" x1="30.8" y1="23.5" x2="29.4" y2="20.1"/>
		<line fill="none" stroke="#13110C" stroke-width="0.3194" stroke-miterlimit="10" x1="31.1" y1="19.3" x2="28.7" y2="20.9"/>
		<line fill="none" stroke="#13110C" stroke-width="0.3194" stroke-miterlimit="10" x1="25.3" y1="18.2" x2="23.3" y2="22.3"/>
		<line fill="none" stroke="#13110C" stroke-width="0.3194" stroke-miterlimit="10" x1="35" y1="26.9" x2="27.3" y2="23"/>
		<line fill="none" stroke="#13110C" stroke-width="0.3194" stroke-miterlimit="10" x1="23.7" y1="32.2" x2="23.8" y2="29.5"/>
		<line fill="none" stroke="#13110C" stroke-width="0.3194" stroke-miterlimit="10" x1="31.4" y1="35.7" x2="30" y2="32"/>
		<path fill="none" stroke="#13110C" stroke-width="0.3194" stroke-miterlimit="10" d="M26.7,37.7c0.1-0.3,2.1-3.7,2.1-3.7"/>
		<line fill="none" stroke="#13110C" stroke-width="0.3194" stroke-miterlimit="10" x1="44.5" y1="24.3" x2="42.6" y2="21.4"/>
		<path fill="none" stroke="#13110C" stroke-width="0.3194" stroke-miterlimit="10" d="M45.4,20.9"/>
		<line fill="none" stroke="#13110C" stroke-width="0.3194" stroke-miterlimit="10" x1="45.4" y1="20.9" x2="42.9" y2="21.8"/>
		<line fill="none" stroke="#13110C" stroke-width="0.3194" stroke-miterlimit="10" x1="43.6" y1="21.4" x2="43.6" y2="15.4"/>
		<line fill="none" stroke="#13110C" stroke-width="0.3194" stroke-miterlimit="10" x1="44.7" y1="19.3" x2="44.5" y2="23.5"/>
		<line fill="none" stroke="#13110C" stroke-width="0.3194" stroke-miterlimit="10" x1="42" y1="20.3" x2="33.8" y2="24.6"/>
		<line fill="none" stroke="#13110C" stroke-width="0.3194" stroke-miterlimit="10" x1="40.4" y1="19.3" x2="38.4" y2="25.1"/>
		<line fill="none" stroke="#13110C" stroke-width="0.3194" stroke-miterlimit="10" x1="36.6" y1="20.6" x2="40" y2="25.5"/>
		<line fill="none" stroke="#13110C" stroke-width="0.3194" stroke-miterlimit="10" x1="39.4" y1="17.7" x2="39.4" y2="24.3"/>
		<line fill="none" stroke="#13110C" stroke-width="0.3194" stroke-miterlimit="10" x1="37.3" y1="17.7" x2="43.4" y2="22.6"/>
		<line fill="none" stroke="#13110C" stroke-width="0.3194" stroke-miterlimit="10" x1="44" y1="16.4" x2="40" y2="24.6"/>
		<line fill="none" stroke="#13110C" stroke-width="0.3194" stroke-miterlimit="10" x1="37.1" y1="16.4" x2="44.7" y2="16.8"/>
		<line fill="none" stroke="#13110C" stroke-width="0.3194" stroke-miterlimit="10" x1="35.3" y1="17.1" x2="42.9" y2="17.9"/>
		<line fill="none" stroke="#13110C" stroke-width="0.3194" stroke-miterlimit="10" x1="39.4" y1="17.1" x2="46.5" y2="21"/>
		<line fill="none" stroke="#13110C" stroke-width="0.3194" stroke-miterlimit="10" x1="50" y1="23.5" x2="42.6" y2="22"/>
		<polyline fill="none" stroke="#13110C" stroke-width="0.3194" stroke-miterlimit="10" points="43.2,20.3 43.6,19.6 43.7,19.4 
			44.9,17.4 45.3,16.7 		"/>
		<polyline fill="none" stroke="#13110C" stroke-width="0.3194" stroke-miterlimit="10" points="41,17.2 43.6,17.3 43.6,17.3 
			44.9,17.4 46.1,17.4 		"/>
		<polyline fill="none" stroke="#13110C" stroke-width="0.3194" stroke-miterlimit="10" points="46.6,17.8 46.6,17.8 46.7,19 
			46.8,19.8 47.2,22.9 47.5,25 47.7,26.3 47.7,26.7 47.8,27.6 47.9,28.3 48.1,29.6 48.1,29.8 		"/>
		<polyline fill="none" stroke="#13110C" stroke-width="0.3194" stroke-miterlimit="10" points="43.6,26.2 41.1,31.1 44.5,29.3 		
			"/>
		<line fill="none" stroke="#13110C" stroke-width="0.3194" stroke-miterlimit="10" x1="44.5" y1="28.7" x2="47.1" y2="23.6"/>
		<line fill="none" stroke="#13110C" stroke-width="0.3194" stroke-miterlimit="10" x1="42.6" y1="27.2" x2="36.3" y2="26.7"/>
		<line fill="none" stroke="#13110C" stroke-width="0.3194" stroke-miterlimit="10" x1="41.8" y1="26.7" x2="40" y2="26.2"/>
		<line fill="none" stroke="#13110C" stroke-width="0.3194" stroke-miterlimit="10" x1="41.1" y1="25.3" x2="40" y2="25.3"/>
		<polyline fill="none" stroke="#13110C" stroke-width="0.3194" stroke-miterlimit="10" points="47.6,30.7 47.6,30.7 45.8,28.9 
			45.5,28.6 45.4,28.6 44.9,28 44.1,27.2 43.8,26.9 43.4,26.5 43.2,26.3 41.4,24.5 40.5,23.6 39.5,22.6 		"/>
		<line fill="none" stroke="#13110C" stroke-width="0.3194" stroke-miterlimit="10" x1="50.1" y1="25.1" x2="47.3" y2="23.1"/>
		<polyline fill="none" stroke="#13110C" stroke-width="0.3194" stroke-miterlimit="10" points="42.6,21 43.6,25.9 44.6,30.6 		"/>
		<line fill="none" stroke="#13110C" stroke-width="0.3194" stroke-miterlimit="10" x1="46.6" y1="24.6" x2="44" y2="26.5"/>
		<line fill="none" stroke="#13110C" stroke-width="0.3194" stroke-miterlimit="10" x1="42.9" y1="23.1" x2="41.1" y2="23.8"/>
		<line fill="none" stroke="#13110C" stroke-width="0.3194" stroke-miterlimit="10" x1="44.3" y1="23.9" x2="37.8" y2="25.3"/>
		<polyline fill="none" stroke="#13110C" stroke-width="0.3194" stroke-miterlimit="10" points="49.5,21.7 49.5,21.7 46.8,19.8 
			45.7,19 		"/>
		<line fill="none" stroke="#13110C" stroke-width="0.3194" stroke-miterlimit="10" x1="47.3" y1="19.3" x2="44.8" y2="18.2"/>
		<line fill="none" stroke="#13110C" stroke-width="0.3194" stroke-miterlimit="10" x1="39.1" y1="19.7" x2="31.8" y2="20.9"/>
		<line fill="none" stroke="#13110C" stroke-width="0.3194" stroke-miterlimit="10" x1="42" y1="19" x2="30.5" y2="18.7"/>
		<line fill="none" stroke="#13110C" stroke-width="0.3194" stroke-miterlimit="10" x1="33.1" y1="18.2" x2="40.9" y2="18.2"/>
		<line fill="none" stroke="#13110C" stroke-width="0.3194" stroke-miterlimit="10" x1="35.1" y1="22" x2="37.3" y2="20.8"/>
		<line fill="none" stroke="#13110C" stroke-width="0.3194" stroke-miterlimit="10" x1="42" y1="22" x2="34.1" y2="20.8"/>
		<line fill="none" stroke="#13110C" stroke-width="0.3194" stroke-miterlimit="10" x1="32.3" y1="21.8" x2="36.2" y2="20.3"/>
		<line fill="none" stroke="#13110C" stroke-width="0.3194" stroke-miterlimit="10" x1="31.6" y1="24.6" x2="37.9" y2="18.9"/>
		<line fill="none" stroke="#13110C" stroke-width="0.3194" stroke-miterlimit="10" x1="27.6" y1="20.3" x2="34.8" y2="25.3"/>
		<line fill="none" stroke="#13110C" stroke-width="0.3194" stroke-miterlimit="10" x1="36.2" y1="23.4" x2="42.9" y2="33.6"/>
		<line fill="none" stroke="#13110C" stroke-width="0.3194" stroke-miterlimit="10" x1="35.9" y1="29.4" x2="36.3" y2="22.2"/>
		<line fill="none" stroke="#13110C" stroke-width="0.3194" stroke-miterlimit="10" x1="34.8" y1="15" x2="33.5" y2="21.4"/>
		<polyline fill="none" stroke="#13110C" stroke-width="0.3194" stroke-miterlimit="10" points="38.4,16.4 41.6,14.8 41.7,14.7 
			41.8,14.7 		"/>
		<line fill="none" stroke="#13110C" stroke-width="0.3194" stroke-miterlimit="10" x1="38.9" y1="15" x2="37" y2="13.7"/>
		<line fill="none" stroke="#13110C" stroke-width="0.3194" stroke-miterlimit="10" x1="37" y1="15.4" x2="35.3" y2="17.7"/>
		<line fill="none" stroke="#13110C" stroke-width="0.3194" stroke-miterlimit="10" x1="31" y1="17.6" x2="35.7" y2="17.1"/>
		<line fill="none" stroke="#13110C" stroke-width="0.3194" stroke-miterlimit="10" x1="30.5" y1="16.1" x2="37" y2="17.7"/>
		<line fill="none" stroke="#13110C" stroke-width="0.3194" stroke-miterlimit="10" x1="30.5" y1="16.8" x2="34.8" y2="17.9"/>
		<line fill="none" stroke="#13110C" stroke-width="0.3194" stroke-miterlimit="10" x1="32.1" y1="19.5" x2="29.5" y2="19.5"/>
		<line fill="none" stroke="#13110C" stroke-width="0.3194" stroke-miterlimit="10" x1="28.9" y1="18.7" x2="35.1" y2="21.4"/>
		<line fill="none" stroke="#13110C" stroke-width="0.3194" stroke-miterlimit="10" x1="30.8" y1="18.9" x2="31.2" y2="23.1"/>
		<line fill="none" stroke="#13110C" stroke-width="0.3194" stroke-miterlimit="10" x1="33.8" y1="23.1" x2="39.4" y2="23.6"/>
		<line fill="none" stroke="#13110C" stroke-width="0.3194" stroke-miterlimit="10" x1="40" y1="14.3" x2="38.3" y2="15.5"/>
		<line fill="none" stroke="#13110C" stroke-width="0.3194" stroke-miterlimit="10" x1="41" y1="14.3" x2="40.5" y2="14.3"/>
		<line fill="none" stroke="#13110C" stroke-width="0.3194" stroke-miterlimit="10" x1="40" y1="14" x2="40" y2="13.9"/>
		<line fill="none" stroke="#13110C" stroke-width="0.3194" stroke-miterlimit="10" x1="38.7" y1="13.3" x2="38.4" y2="14.2"/>
		<polyline fill="none" stroke="#13110C" stroke-width="0.3194" stroke-miterlimit="10" points="38.3,14.3 38.9,14.3 38.9,14.3 
			40.4,14 40.4,14 		"/>
		<line fill="none" stroke="#13110C" stroke-width="0.3194" stroke-miterlimit="10" x1="34.8" y1="14.2" x2="37.3" y2="15.8"/>
		<polyline fill="none" stroke="#13110C" stroke-width="0.3194" stroke-miterlimit="10" points="32.6,16.4 36.2,13.8 41.6,14.8 
			43.2,15.8 		"/>
		<line fill="none" stroke="#13110C" stroke-width="0.3194" stroke-miterlimit="10" x1="34.5" y1="20.1" x2="35.9" y2="17.8"/>
		<line fill="none" stroke="#13110C" stroke-width="0.3194" stroke-miterlimit="10" x1="49.2" y1="28.2" x2="44.3" y2="28.7"/>
		<line fill="none" stroke="#13110C" stroke-width="0.3194" stroke-miterlimit="10" x1="43.6" y1="30.8" x2="49.4" y2="24.5"/>
		<line fill="none" stroke="#13110C" stroke-width="0.3194" stroke-miterlimit="10" x1="44.8" y1="31.7" x2="48.1" y2="30.6"/>
		<polyline fill="none" stroke="#13110C" stroke-width="0.3194" stroke-miterlimit="10" points="45.8,32.4 45.8,32.3 45.5,31.5 
			45.2,30.3 44.9,29.3 		"/>
		<polyline fill="none" stroke="#13110C" stroke-width="0.3194" stroke-miterlimit="10" points="40,30.6 40,30.6 41.2,30.9 
			41.2,30.9 41.4,31 44.4,31.9 45.7,32.3 45.7,32.3 45.8,32.4 		"/>
		<line fill="none" stroke="#13110C" stroke-width="0.3194" stroke-miterlimit="10" x1="40" y1="33.2" x2="40.5" y2="31.7"/>
		<polyline fill="none" stroke="#13110C" stroke-width="0.3194" stroke-miterlimit="10" points="43.8,33.6 42.7,33.2 40.3,32.4 
			38.7,31.8 38.4,31.7 38.4,31.7 38.4,31.7 40.2,32.6 43.3,34 		"/>
		<line fill="none" stroke="#13110C" stroke-width="0.3194" stroke-miterlimit="10" x1="38.3" y1="33.2" x2="40" y2="33"/>
		<line fill="none" stroke="#13110C" stroke-width="0.3194" stroke-miterlimit="10" x1="30.2" y1="27.9" x2="43.9" y2="28.7"/>
		<polyline fill="none" stroke="#13110C" stroke-width="0.3194" stroke-miterlimit="10" points="50,25.6 49.2,26 47.7,26.7 
			47.3,26.9 		"/>
		<line fill="none" stroke="#13110C" stroke-width="0.3194" stroke-miterlimit="10" x1="45" y1="26.7" x2="48.5" y2="30"/>
		<line fill="none" stroke="#13110C" stroke-width="0.3194" stroke-miterlimit="10" x1="48.6" y1="24.5" x2="46.2" y2="25.6"/>
		<line fill="none" stroke="#13110C" stroke-width="0.3194" stroke-miterlimit="10" x1="48.3" y1="27.6" x2="43.8" y2="27.2"/>
		<line fill="none" stroke="#13110C" stroke-width="0.3194" stroke-miterlimit="10" x1="38.9" y1="30.2" x2="43.4" y2="26.1"/>
		<line fill="none" stroke="#13110C" stroke-width="0.3194" stroke-miterlimit="10" x1="38.3" y1="27.7" x2="39.8" y2="31.1"/>
		<line fill="none" stroke="#13110C" stroke-width="0.3194" stroke-miterlimit="10" x1="38" y1="31.9" x2="40.4" y2="30.3"/>
		<line fill="none" stroke="#13110C" stroke-width="0.3194" stroke-miterlimit="10" x1="43.8" y1="33" x2="45.8" y2="28.9"/>
		<line fill="none" stroke="#13110C" stroke-width="0.3194" stroke-miterlimit="10" x1="34.1" y1="24.3" x2="41.8" y2="28.2"/>
		<line fill="none" stroke="#13110C" stroke-width="0.3194" stroke-miterlimit="10" x1="45.4" y1="19" x2="45.3" y2="21.7"/>
		<line fill="none" stroke="#13110C" stroke-width="0.3194" stroke-miterlimit="10" x1="37.8" y1="15.5" x2="39.1" y2="19.3"/>
		<path fill="none" stroke="#13110C" stroke-width="0.3194" stroke-miterlimit="10" d="M41.8,14.7C41.7,14.7,41.7,14.7,41.8,14.7
			c-0.1,0.1-0.1,0.1-0.1,0.2c-0.3,0.6-0.7,1.3-1,1.8c-0.2,0.3-0.3,0.6-0.3,0.6"/>
		<polyline fill="none" stroke="#13110C" stroke-width="0.3194" stroke-miterlimit="10" points="20.4,11.7 17.9,16.6 21.3,14.8 		
			"/>
		<polyline fill="none" stroke="#13110C" stroke-width="0.3194" stroke-miterlimit="10" points="22.8,11.3 22,12.8 21.6,13.5 
			21.3,14.1 21.3,14.1 		"/>
		<polyline fill="none" stroke="#13110C" stroke-width="0.3194" stroke-miterlimit="10" points="15.2,12.3 15.2,12.3 19,12.6 
			19.4,12.7 		"/>
		<line fill="none" stroke="#13110C" stroke-width="0.3194" stroke-miterlimit="10" x1="18.6" y1="12.2" x2="16.7" y2="11.7"/>
		<polyline fill="none" stroke="#13110C" stroke-width="0.3194" stroke-miterlimit="10" points="19.7,11.5 20,11.8 20.2,12 
			20.6,12.4 20.9,12.7 21.6,13.5 22.2,14 22.3,14.1 22.6,14.4 24.4,16.2 24.8,16.6 25.2,17 		"/>
		<polyline fill="none" stroke="#13110C" stroke-width="0.3194" stroke-miterlimit="10" points="20.4,11.5 20.6,12.4 20.6,12.7 
			21.1,14.9 21.2,15.3 21.3,16 		"/>
		<polyline fill="none" stroke="#13110C" stroke-width="0.3194" stroke-miterlimit="10" points="20.8,12 21.6,11.4 21.7,11.4 		"/>
		<polyline fill="none" stroke="#13110C" stroke-width="0.3194" stroke-miterlimit="10" points="34.8,12.3 35.7,14.1 36,14.6 		"/>
		<line fill="none" stroke="#13110C" stroke-width="0.3194" stroke-miterlimit="10" x1="26" y1="11.4" x2="26.5" y2="13.2"/>
		<line fill="none" stroke="#13110C" stroke-width="0.3194" stroke-miterlimit="10" x1="26" y1="13.7" x2="21.1" y2="14.1"/>
		<polyline fill="none" stroke="#13110C" stroke-width="0.3194" stroke-miterlimit="10" points="25,11.2 23.4,12.9 22.4,14 
			22.3,14.1 21.7,14.8 21.7,14.8 21.2,15.3 20.4,16.2 		"/>
		<polyline fill="none" stroke="#13110C" stroke-width="0.3194" stroke-miterlimit="10" points="27.8,15.8 27.8,13.2 27.8,13.2 
			27.8,12.8 27.8,11.3 		"/>
		<line fill="none" stroke="#13110C" stroke-width="0.3194" stroke-miterlimit="10" x1="29" y1="11.4" x2="28.3" y2="12"/>
		<polyline fill="none" stroke="#13110C" stroke-width="0.3194" stroke-miterlimit="10" points="25.2,14.9 29.8,11.9 30.2,14.6 		
			"/>
		<line fill="none" stroke="#13110C" stroke-width="0.3194" stroke-miterlimit="10" x1="24.4" y1="17.2" x2="28.1" y2="12.4"/>
		<line fill="none" stroke="#13110C" stroke-width="0.3194" stroke-miterlimit="10" x1="21.6" y1="17.2" x2="24.9" y2="16"/>
		<line fill="none" stroke="#13110C" stroke-width="0.3194" stroke-miterlimit="10" x1="21.7" y1="14.8" x2="23.2" y2="20"/>
		<line fill="none" stroke="#13110C" stroke-width="0.3194" stroke-miterlimit="10" x1="23.8" y1="18.2" x2="16.7" y2="16"/>
		<line fill="none" stroke="#13110C" stroke-width="0.3194" stroke-miterlimit="10" x1="16.7" y1="18.7" x2="17.3" y2="17.2"/>
		<polyline fill="none" stroke="#13110C" stroke-width="0.3194" stroke-miterlimit="10" points="20.7,19.7 15.2,17.2 20.5,19 		"/>
		<line fill="none" stroke="#13110C" stroke-width="0.3194" stroke-miterlimit="10" x1="15.1" y1="18.7" x2="16.8" y2="18.5"/>
		<polyline fill="none" stroke="#13110C" stroke-width="0.3194" stroke-miterlimit="10" points="10.9,13.6 10.9,13.6 11.1,13.6 
			11.9,13.6 11.9,13.6 14.5,13.8 14.5,13.8 15.4,13.8 15.6,13.9 17.5,14 19.2,14 20.7,14.1 		"/>
		<polyline fill="none" stroke="#13110C" stroke-width="0.3194" stroke-miterlimit="10" points="25.4,14.1 25.6,13.7 26.3,12.5 
			27.1,11.3 		"/>
		<polyline fill="none" stroke="#13110C" stroke-width="0.3194" stroke-miterlimit="10" points="26.5,11.2 26.5,11.2 26,11.5 
			24.1,12.4 		"/>
		<line fill="none" stroke="#13110C" stroke-width="0.3194" stroke-miterlimit="10" x1="24.4" y1="14.9" x2="27.8" y2="18.2"/>
		<line fill="none" stroke="#13110C" stroke-width="0.3194" stroke-miterlimit="10" x1="28.6" y1="17.4" x2="25.4" y2="15.5"/>
		<polyline fill="none" stroke="#13110C" stroke-width="0.3194" stroke-miterlimit="10" points="29.1,16.5 26.1,15 28.3,12.7 
			30.4,17.7 		"/>
		<polyline fill="none" stroke="#13110C" stroke-width="0.3194" stroke-miterlimit="10" points="29.8,17.9 29.9,16.7 29.9,16.7 
			30.4,12.7 30.5,11.6 		"/>
		<polyline fill="none" stroke="#13110C" stroke-width="0.3194" stroke-miterlimit="10" points="31.6,11.7 31.9,12.7 31.9,12.9 		
			"/>
		<line fill="none" stroke="#13110C" stroke-width="0.3194" stroke-miterlimit="10" x1="34.4" y1="12.2" x2="33.5" y2="14.8"/>
		<line fill="none" stroke="#13110C" stroke-width="0.3194" stroke-miterlimit="10" x1="31" y1="14" x2="30.4" y2="12.7"/>
		<line fill="none" stroke="#13110C" stroke-width="0.3194" stroke-miterlimit="10" x1="34.2" y1="14.6" x2="29.9" y2="16.7"/>
		<line fill="none" stroke="#13110C" stroke-width="0.3194" stroke-miterlimit="10" x1="32" y1="19.3" x2="33.5" y2="15.2"/>
		<line fill="none" stroke="#13110C" stroke-width="0.3194" stroke-miterlimit="10" x1="35.5" y1="17.7" x2="32.4" y2="14.3"/>
		<line fill="none" stroke="#13110C" stroke-width="0.3194" stroke-miterlimit="10" x1="33.1" y1="14.1" x2="32" y2="12.5"/>
		<polyline fill="none" stroke="#13110C" stroke-width="0.3194" stroke-miterlimit="10" points="32.1,11.8 31.9,12.7 31.9,12.7 
			31.6,13.4 		"/>
		<line fill="none" stroke="#13110C" stroke-width="0.3194" stroke-miterlimit="10" x1="25.1" y1="13.1" x2="20.6" y2="12.7"/>
		<line fill="none" stroke="#13110C" stroke-width="0.3194" stroke-miterlimit="10" x1="15.7" y1="15.6" x2="20.2" y2="11.6"/>
		<line fill="none" stroke="#13110C" stroke-width="0.3194" stroke-miterlimit="10" x1="15.1" y1="13.2" x2="16.5" y2="16.5"/>
		<line fill="none" stroke="#13110C" stroke-width="0.3194" stroke-miterlimit="10" x1="14.8" y1="17.4" x2="17.2" y2="15.8"/>
		<line fill="none" stroke="#13110C" stroke-width="0.3194" stroke-miterlimit="10" x1="20.6" y1="18.5" x2="22.6" y2="14.4"/>
		<line fill="none" stroke="#13110C" stroke-width="0.3194" stroke-miterlimit="10" x1="6.3" y1="25" x2="3.4" y2="26.9"/>
		<path fill="none" stroke="#13110C" stroke-width="0.3194" stroke-miterlimit="10" d="M2.9,24.1"/>
		<line fill="none" stroke="#13110C" stroke-width="0.3194" stroke-miterlimit="10" x1="2.9" y1="24.1" x2="3.8" y2="26.6"/>
		<line fill="none" stroke="#13110C" stroke-width="0.3194" stroke-miterlimit="10" x1="1.2" y1="24.8" x2="5.5" y2="25"/>
		<polyline fill="none" stroke="#13110C" stroke-width="0.3194" stroke-miterlimit="10" points="5.4,33.3 5.3,33.2 5.3,33.2 
			5.1,32.8 4.5,31.6 3.6,29.9 2.3,27.5 		"/>
		<line fill="none" stroke="#13110C" stroke-width="0.3194" stroke-miterlimit="10" x1="1.2" y1="29.1" x2="7" y2="31.1"/>
		<polyline fill="none" stroke="#13110C" stroke-width="0.3194" stroke-miterlimit="10" points="4,31.9 4.5,31.6 5.5,30.9 5.8,30.7 
			6.9,30 7.5,29.5 		"/>
		<polyline fill="none" stroke="#13110C" stroke-width="0.3194" stroke-miterlimit="10" points="4,26.9 4,26.7 4,26.5 4.2,24.9 
			4.4,23.9 4.5,22.6 4.8,20.3 5,18.8 5.1,18.5 5.2,17.5 5.3,16.4 5.4,16.1 		"/>
		<polyline fill="none" stroke="#13110C" stroke-width="0.3194" stroke-miterlimit="10" points="2,22.7 4.4,23.9 7.5,25.5 5.5,23.8 
			4.5,22.6 3,20.9 1.9,19.6 		"/>
		<polyline fill="none" stroke="#13110C" stroke-width="0.3194" stroke-miterlimit="10" points="8.2,25.9 13.1,28.4 11.3,25 		"/>
		<line fill="none" stroke="#13110C" stroke-width="0.3194" stroke-miterlimit="10" x1="10.6" y1="25" x2="5.6" y2="22.4"/>
		<line fill="none" stroke="#13110C" stroke-width="0.3194" stroke-miterlimit="10" x1="9.2" y1="26.9" x2="8.7" y2="33.2"/>
		<line fill="none" stroke="#13110C" stroke-width="0.3194" stroke-miterlimit="10" x1="8.7" y1="27.7" x2="8.2" y2="29.5"/>
		<line fill="none" stroke="#13110C" stroke-width="0.3194" stroke-miterlimit="10" x1="7.2" y1="28.4" x2="7.2" y2="29.5"/>
		<line fill="none" stroke="#13110C" stroke-width="0.3194" stroke-miterlimit="10" x1="4.6" y1="30" x2="13.5" y2="21.1"/>
		<line fill="none" stroke="#13110C" stroke-width="0.3194" stroke-miterlimit="10" x1="7" y1="19.4" x2="5" y2="22.2"/>
		<polyline fill="none" stroke="#13110C" stroke-width="0.3194" stroke-miterlimit="10" points="3,26.9 7.9,25.9 12.5,24.9 		"/>
		<line fill="none" stroke="#13110C" stroke-width="0.3194" stroke-miterlimit="10" x1="6.6" y1="22.9" x2="8.5" y2="25.5"/>
		<line fill="none" stroke="#13110C" stroke-width="0.3194" stroke-miterlimit="10" x1="5" y1="26.6" x2="5.8" y2="28.4"/>
		<line fill="none" stroke="#13110C" stroke-width="0.3194" stroke-miterlimit="10" x1="5.9" y1="25.2" x2="7.2" y2="31.8"/>
		<line fill="none" stroke="#13110C" stroke-width="0.3194" stroke-miterlimit="10" x1="1" y1="23.8" x2="4.5" y2="18.9"/>
		<polyline fill="none" stroke="#13110C" stroke-width="0.3194" stroke-miterlimit="10" points="7,17.2 5.2,17.5 3.8,17.7 3.6,17.8 
			3.6,17.8 		"/>
		<polyline fill="none" stroke="#13110C" stroke-width="0.3194" stroke-miterlimit="10" points="2.8,18.6 3.8,19.8 4.1,20.3 		"/>
		<line fill="none" stroke="#13110C" stroke-width="0.3194" stroke-miterlimit="10" x1="4.2" y1="20.8" x2="8.7" y2="17.5"/>
		<line fill="none" stroke="#13110C" stroke-width="0.3194" stroke-miterlimit="10" x1="1.2" y1="22.2" x2="0.1" y2="24.7"/>
		<line fill="none" stroke="#13110C" stroke-width="0.3194" stroke-miterlimit="10" x1="5.4" y1="33.3" x2="15.5" y2="26.6"/>
		<polyline fill="none" stroke="#13110C" stroke-width="0.3194" stroke-miterlimit="10" points="5.3,33.2 5.3,33.2 5.5,33.3 
			5.7,33.3 5.7,33.3 7.3,33.4 10,33.5 10.2,33.6 11.4,33.6 		"/>
		<polyline fill="none" stroke="#13110C" stroke-width="0.3194" stroke-miterlimit="10" points="5.6,30.1 5.5,30.6 5.5,30.9 5.3,33 
			5.3,33.2 5.3,33.2 5.3,33.2 		"/>
		<polyline fill="none" stroke="#13110C" stroke-width="0.3194" stroke-miterlimit="10" points="5.4,16.1 6.5,15.7 6.5,15.7 
			6.6,15.7 6.8,15.6 7.5,15.3 		"/>
		<line fill="none" stroke="#13110C" stroke-width="0.3194" stroke-miterlimit="10" x1="7.9" y1="20.3" x2="9.7" y2="19.7"/>
		<line fill="none" stroke="#13110C" stroke-width="0.3194" stroke-miterlimit="10" x1="10.2" y1="20.3" x2="10.6" y2="25.2"/>
		<line fill="none" stroke="#13110C" stroke-width="0.3194" stroke-miterlimit="10" x1="12.7" y1="25.9" x2="6.4" y2="20.1"/>
		<line fill="none" stroke="#13110C" stroke-width="0.3194" stroke-miterlimit="10" x1="5" y1="18.5" x2="12.3" y2="18.5"/>
		<polyline fill="none" stroke="#13110C" stroke-width="0.3194" stroke-miterlimit="10" points="5.4,19.1 5,18.8 3.8,17.7 3.7,17.7 
					"/>
		<line fill="none" stroke="#13110C" stroke-width="0.3194" stroke-miterlimit="10" x1="6.3" y1="15.3" x2="8.5" y2="18"/>
		<polyline fill="none" stroke="#13110C" stroke-width="0.3194" stroke-miterlimit="10" points="11.4,21.1 8.4,16.5 11.1,16.1 		"/>
		<line fill="none" stroke="#13110C" stroke-width="0.3194" stroke-miterlimit="10" x1="13.7" y1="21.9" x2="8.9" y2="18.2"/>
		<line fill="none" stroke="#13110C" stroke-width="0.3194" stroke-miterlimit="10" x1="13.7" y1="24.7" x2="12.5" y2="21.4"/>
		<line fill="none" stroke="#13110C" stroke-width="0.3194" stroke-miterlimit="10" x1="11.3" y1="24.6" x2="16.5" y2="23"/>
		<line fill="none" stroke="#13110C" stroke-width="0.3194" stroke-miterlimit="10" x1="14.7" y1="22.5" x2="12.5" y2="29.5"/>
		<line fill="none" stroke="#13110C" stroke-width="0.3194" stroke-miterlimit="10" x1="15.2" y1="29.5" x2="13.7" y2="29"/>
		<polyline fill="none" stroke="#13110C" stroke-width="0.3194" stroke-miterlimit="10" points="16.2,25.6 13.7,31.1 15.5,25.7 		
			"/>
		<line fill="none" stroke="#13110C" stroke-width="0.3194" stroke-miterlimit="10" x1="15.2" y1="31.2" x2="15" y2="29.5"/>
		<polyline fill="none" stroke="#13110C" stroke-width="0.3194" stroke-miterlimit="10" points="10.6,25.6 10.6,27.1 10.5,27.4 
			10.5,28.7 10.4,30 10.3,30.9 10.3,32.2 10.2,33.1 10.2,33.6 10.1,35.5 		"/>
		<polyline fill="none" stroke="#13110C" stroke-width="0.3194" stroke-miterlimit="10" points="8.9,22.2 7.4,18.9 10.6,20.9 		"/>
		<line fill="none" stroke="#13110C" stroke-width="0.3194" stroke-miterlimit="10" x1="11.4" y1="21.9" x2="14.7" y2="18.5"/>
		<line fill="none" stroke="#13110C" stroke-width="0.3194" stroke-miterlimit="10" x1="13.9" y1="17.7" x2="12" y2="20.9"/>
		<polyline fill="none" stroke="#13110C" stroke-width="0.3194" stroke-miterlimit="10" points="13,17.2 11.5,20.2 9.2,18 
			14.2,15.9 		"/>
		<line fill="none" stroke="#13110C" stroke-width="0.3194" stroke-miterlimit="10" x1="6.6" y1="15.6" x2="14.4" y2="16.5"/>
		<polyline fill="none" stroke="#13110C" stroke-width="0.3194" stroke-miterlimit="10" points="9.4,14.4 9.2,14.4 9.2,14.4 
			8.5,14.6 8.5,14.6 		"/>
		<line fill="none" stroke="#13110C" stroke-width="0.3194" stroke-miterlimit="10" x1="10.5" y1="15.3" x2="9.2" y2="15.9"/>
		<polyline fill="none" stroke="#13110C" stroke-width="0.3194" stroke-miterlimit="10" points="13.2,16.3 11.9,13.6 11.9,13.6 
			11.7,13.3 11.6,13.1 		"/>
		<polyline fill="none" stroke="#13110C" stroke-width="0.3194" stroke-miterlimit="10" points="11.9,12.8 12.5,13.1 12.5,13.1 
			14.5,13.8 14.5,13.8 15.3,14.1 15.5,14.2 15.8,14.3 		"/>
		<polyline fill="none" stroke="#13110C" stroke-width="0.3194" stroke-miterlimit="10" points="10.8,13.9 11.1,13.6 11.2,13.5 
			11.2,13.5 11.6,13.1 11.9,12.8 		"/>
		<line fill="none" stroke="#13110C" stroke-width="0.3194" stroke-miterlimit="10" x1="10.1" y1="13.6" x2="9" y2="14.3"/>
		<polyline fill="none" stroke="#13110C" stroke-width="0.3194" stroke-miterlimit="10" points="9,14.4 9,14.4 9.2,14.4 9.2,14.4 
			9.9,14.6 		"/>
		<line fill="none" stroke="#13110C" stroke-width="0.3194" stroke-miterlimit="10" x1="6.4" y1="20.9" x2="7.6" y2="23.3"/>
		<line fill="none" stroke="#13110C" stroke-width="0.3194" stroke-miterlimit="10" x1="9.6" y1="21.2" x2="9.2" y2="25.7"/>
		<line fill="none" stroke="#13110C" stroke-width="0.3194" stroke-miterlimit="10" x1="12.1" y1="30.6" x2="8.1" y2="26.1"/>
		<line fill="none" stroke="#13110C" stroke-width="0.3194" stroke-miterlimit="10" x1="9.7" y1="31.2" x2="13" y2="29.7"/>
		<line fill="none" stroke="#13110C" stroke-width="0.3194" stroke-miterlimit="10" x1="13.9" y1="31.5" x2="12.3" y2="29.1"/>
		<line fill="none" stroke="#13110C" stroke-width="0.3194" stroke-miterlimit="10" x1="15" y1="25.7" x2="10.9" y2="23.7"/>
		<polyline fill="none" stroke="#13110C" stroke-width="0.3194" stroke-miterlimit="10" points="10.2,27.7 9.9,28.2 8.9,30.3 
			8.3,31.4 7.3,33.4 7,34 		"/>
		<line fill="none" stroke="#13110C" stroke-width="0.3194" stroke-miterlimit="10" x1="1" y1="24.1" x2="3.7" y2="24.2"/>
		<line fill="none" stroke="#13110C" stroke-width="0.3194" stroke-miterlimit="10" x1="0.1" y1="27.3" x2="2.3" y2="26.4"/>
		<polyline fill="none" stroke="#13110C" stroke-width="0.3194" stroke-miterlimit="10" points="0.7,23.6 0.7,27.9 2.1,25.9 
			4.5,25.8 		"/>
		<line fill="none" stroke="#13110C" stroke-width="0.3194" stroke-miterlimit="10" x1="5" y1="27.9" x2="2.8" y2="29.3"/>
		<line fill="none" stroke="#13110C" stroke-width="0.3194" stroke-miterlimit="10" x1="2.6" y1="30.8" x2="1" y2="26.4"/>
		<line fill="none" stroke="#13110C" stroke-width="0.3194" stroke-miterlimit="10" x1="2.4" y1="21.1" x2="0.8" y2="21.6"/>
		<line fill="none" stroke="#13110C" stroke-width="0.3194" stroke-miterlimit="10" x1="10.4" y1="14.4" x2="15.1" y2="15.3"/>
		<line fill="none" stroke="#13110C" stroke-width="0.3194" stroke-miterlimit="10" x1="17" y1="12.8" x2="13.2" y2="15.5"/>
		<line fill="none" stroke="#13110C" stroke-width="0.3194" stroke-miterlimit="10" x1="35.9" y1="33.5" x2="42" y2="34.8"/>
		<polyline fill="none" stroke="#13110C" stroke-width="0.3194" stroke-miterlimit="10" points="41,35.1 41.1,34.6 41.1,33 
			41.1,32.7 41.2,32.2 		"/>
		<polyline fill="none" stroke="#13110C" stroke-width="0.3194" stroke-miterlimit="10" points="36.5,34.4 36.6,34.6 36.9,36.1 
			37.1,36.6 		"/>
		<path fill="none" stroke="#13110C" stroke-width="0.3194" stroke-miterlimit="10" d="M38.9,34.5c0,0,0.3,0.7,0.6,1.2
			c0,0.1,0.1,0.1,0.1,0.2"/>
		<polyline fill="none" stroke="#13110C" stroke-width="0.3194" stroke-miterlimit="10" points="36.1,36.2 36.9,36.1 38.8,36 
			39.6,35.9 		"/>
		<line fill="none" stroke="#13110C" stroke-width="0.3194" stroke-miterlimit="10" x1="35.6" y1="36.1" x2="35.2" y2="37.1"/>
		<line fill="none" stroke="#13110C" stroke-width="0.3194" stroke-miterlimit="10" x1="23.4" y1="36.7" x2="22.4" y2="38.1"/>
		<line fill="none" stroke="#13110C" stroke-width="0.3194" stroke-miterlimit="10" x1="13.4" y1="35.6" x2="10.4" y2="32.3"/>
		<line fill="none" stroke="#13110C" stroke-width="0.3194" stroke-miterlimit="10" x1="12.8" y1="31.5" x2="10.9" y2="34.8"/>
		<line fill="none" stroke="#13110C" stroke-width="0.3194" stroke-miterlimit="10" x1="11.2" y1="36.4" x2="13.4" y2="34.8"/>
		<path fill="none" stroke="#13110C" stroke-width="0.3194" stroke-miterlimit="10" d="M23.4,39.1"/>
		<line fill="none" stroke="#13110C" stroke-width="0.3194" stroke-miterlimit="10" x1="33.8" y1="12.1" x2="33.1" y2="13.5"/>
		<line fill="none" stroke="#13110C" stroke-width="0.3194" stroke-miterlimit="10" x1="31.1" y1="15" x2="29.8" y2="14.2"/>
		<polyline fill="none" stroke="#13110C" stroke-width="0.3194" stroke-miterlimit="10" points="45,24.6 47.3,23.2 47.4,23.1 
			47.6,23 49.5,21.8 		"/>
	</g>
</g>
</svg>
