<?xml version="1.0" encoding="utf-8"?>
<!-- Generator: Adobe Illustrator 19.2.1, SVG Export Plug-In . SVG Version: 6.00 Build 0)  -->
<svg version="1.2" baseProfile="tiny" id="Layer_1" xmlns="http://www.w3.org/2000/svg" xmlns:xlink="http://www.w3.org/1999/xlink"
	 x="0px" y="0px" viewBox="0 0 50.8 50.8" xml:space="preserve">
<g>
	<path fill="none" stroke="#000000" stroke-width="0.8" stroke-linecap="round" stroke-linejoin="round" stroke-miterlimit="10" d="
		M50.1,29.1c-1.5,2.9-8.6,3.9-23.9-7.4c-7.8-6.1-12.8-13.3-13-17.5c0-0.8,0-1.9,1-2.6C10.7,4.7-1,17.7,0.5,30.8
		c1.5,13.1,13.4,18.6,18.9,19.3c3.5,0.4,7.5,0,11.3-1.5C38.8,45.3,46.6,37.2,50.1,29.1z"/>
	<path fill="none" stroke="#000000" stroke-width="0.8" stroke-linecap="round" stroke-linejoin="round" stroke-miterlimit="10" d="
		M40.2,23.3c-0.7,1.5-4.3,1.8-12-3.8c-3.9-3.1-6.1-5.9-6.2-8.3c0-0.6-0.2-2.3,2.1-2.3c2.4,0,6.5,1.7,10.9,5.5
		C37.2,16.1,41.5,20.4,40.2,23.3z"/>
	<path fill="none" stroke="#000000" stroke-width="0.8" stroke-linecap="round" stroke-linejoin="round" stroke-miterlimit="10" d="
		M17.9,0.6c4.8,0.1,13,3.4,21.7,11c7.5,6.4,12.1,13.9,10.5,17.4c-1.5,2.9-8.6,3.9-23.9-7.4c-7.8-6.1-12.8-13.3-13-17.5
		C13.2,2.9,13.2,0.7,17.9,0.6z"/>
	<path fill="none" stroke="#000000" stroke-width="0.8" stroke-linecap="round" stroke-linejoin="round" stroke-miterlimit="10" d="
		M5.7,12.1c0.1,2.1,1.2,10.2,14,19.8c12.6,9.5,20.2,9.3,23.5,7.7"/>
	<path fill="none" stroke="#000000" stroke-width="0.8" stroke-linecap="round" stroke-linejoin="round" stroke-miterlimit="10" d="
		M14.8,27.8c-1,3.2-1.9,8.2-5.3,11.3c-0.2,0.8,0,2.2,1.5,3.3c1.5,1,2.6,1.5,4,1.2c0.4-0.9,5.3-6.8,10.1-7.9"/>
	<path fill="none" stroke="#000000" stroke-width="0.8" stroke-linecap="round" stroke-linejoin="round" stroke-miterlimit="10" d="
		M10.1,38.4c-0.4,0-0.7,0.1-1,0.3c-0.7,0.4-1.1,2.6,1,4.3c2,1.7,4.2,2.1,5.4,1.2c0.5-0.4,0.5-0.9,0.2-1.5"/>
</g>
</svg>
