<?xml version="1.0" encoding="UTF-8"?>
<svg width="350px" height="1000px" viewBox="0 0 350 1000" version="1.1" xmlns="http://www.w3.org/2000/svg" xmlns:xlink="http://www.w3.org/1999/xlink">
    <!-- Generator: Sketch 52.5 (67469) - http://www.bohemiancoding.com/sketch -->
    <title>Combined Shape</title>
    <desc>Created with Sketch.</desc>
    <g id="Philips-Hue" stroke="none" stroke-width="1" fill="none" fill-rule="evenodd">
        <g id="Expanded" transform="translate(-325.000000, 0.000000)" fill="#000000">
            <path d="M584.745761,768.970091 L580.902342,812.972448 L581,812.95295 C580.961139,813.030225 580.922424,813.107317 580.883843,813.184233 L580.858656,813.472599 L580.7139,813.523566 C579.286153,816.37848 578.022664,818.996371 576.339797,821.638441 C575.896848,822.254397 575.575914,822.821484 575.295994,823.246036 C574.010209,825.374903 572.805426,827.691101 571.881588,830.010354 C571.117705,832.042501 570.515826,834.123516 570.193867,836.109848 L570.152853,836.346049 L570.11389,836.536435 C568.991135,840.649597 568.066272,845.991617 567.302388,852.233645 C566.418539,859.137445 565.735658,867.033901 565.212731,875.450611 C564.651866,884.672645 564.289918,894.318213 564.129964,903.775431 C563.889008,914.321008 563.889008,924.725067 564.047937,934.038731 L564.087925,937.300754 L564.328882,937.300754 L545.167195,964.821268 L545.248198,964.821268 L538.900274,972.340005 L522.511126,991.773676 L522.471137,991.819491 L522.069201,992.245061 C519.095695,995.744303 516.083225,999.244563 500.61689,1000 L500.374908,1000 C484.909598,999.243545 481.897128,995.745321 478.922596,992.245061 L478.52271,991.819491 L478.482722,991.773676 L462.093574,972.340005 L455.74565,964.821268 L455.90663,964.821268 L437.225831,937.348605 L436.904897,937.303808 L436.943861,934.03975 C437.103815,924.725067 437.064852,914.321008 436.862858,903.777467 C436.662916,894.318213 436.300968,884.674682 435.778041,875.453665 C435.256139,867.035937 434.574284,859.139481 433.689409,852.2367 C432.926551,845.993653 431.962724,840.651633 430.877907,836.537453 L430.838944,836.348085 L430.798956,836.111884 C430.478022,834.125552 429.875118,832.044537 429.071246,830.012391 C428.146383,827.694156 426.982614,825.376939 425.696828,823.248072 C425.413833,822.82352 425.093924,822.304285 424.691988,821.689347 L424.691988,821.642514 C422.728449,818.764319 421.49188,815.380123 420,812 L420.685663,812.248687 L417.383672,770.853288 C415.920473,769.744984 414.456628,768.223479 412.847478,766.326152 C410.622027,763.702153 408.276621,760.361539 406.668356,757.622629 C342.687065,648.583365 317.887018,524.330689 326.731358,396.105382 C333.848016,292.928007 363.242569,192.161395 401.68993,123.123056 C432.244285,68.2579057 454.284242,34.6590222 470.250805,17.0911055 C482.567052,3.53960998 489.993696,0 500,0 C510.006333,0 517.432999,3.53960998 529.749283,17.0911055 C545.715892,34.6590222 567.755914,68.2579057 598.310378,123.123092 C636.757527,192.161914 666.151986,292.928388 673.268639,396.105382 C682.113019,524.330889 657.312788,648.583466 593.330481,757.623336 C591.723966,760.36035 589.378511,763.701522 587.152762,766.32602 C586.31808,767.310237 585.522475,768.193335 584.745761,768.970091 Z M568.233615,815.325067 L572.070992,771.386365 C567.989924,772.020266 563.400313,772.647344 558.337658,773.238097 C541.183752,775.239757 522.075655,776.439655 501.489876,776.439655 C481.001734,776.439655 461.91497,775.239779 444.726671,773.238264 C439.173572,772.591626 434.182339,771.901493 429.80158,771.206577 L433.694204,815.518922 C434.285889,815.605854 434.887277,815.692521 435.498121,815.779222 C438.912527,816.250607 442.687855,816.629343 446.70414,817.00808 C454.540867,817.763517 463.016386,818.284789 471.491905,818.662508 C481.295249,819.088077 491.218558,819.277446 500.33697,819.373148 C509.454356,819.278464 519.336651,819.089095 529.139995,818.662508 C537.616539,818.284789 546.092058,817.765553 553.966724,817.00808 C558.022997,816.631379 561.880353,816.20581 565.416775,815.731371 C566.378679,815.596668 567.31799,815.461965 568.233615,815.325067 Z M421.147645,757.559093 L425.275833,758.396822 C425.31852,758.405484 425.420971,758.425788 425.582204,758.456964 C425.862655,758.51119 426.199929,758.57475 426.593046,758.646873 C427.730949,758.855637 429.080477,759.089427 430.633762,759.342085 C435.099176,760.068432 440.285689,760.796494 446.130308,761.477079 C462.8704,763.426402 481.491875,764.597028 501.489876,764.597028 C521.585424,764.597028 540.227006,763.426424 556.931145,761.477247 C562.762441,760.796803 567.929479,760.068933 572.371913,759.342832 C573.91692,759.090306 575.258277,758.856662 576.388446,758.648056 C577.052502,758.525485 577.490369,758.440256 577.694512,758.398529 L578.265451,758.28183 C579.963488,756.237556 581.791744,753.617395 582.999124,751.560385 C629.283586,672.68152 654.653527,585.603603 661.262479,494.73804 C659.898933,494.533951 658.446837,494.321882 656.907734,494.102852 C646.939542,492.684281 635.40136,491.265162 622.436504,489.940314 C585.379385,486.153535 544.333443,483.881147 500.445689,483.881147 C463.549591,483.881147 423.998574,486.153827 384.44473,489.941912 C370.59857,491.267963 357.742001,492.68867 346.205684,494.109178 C343.518652,494.440042 341.03279,494.755123 338.76029,495.050923 C345.404578,585.803331 370.768982,672.77162 416.999163,751.558793 C418.069623,753.381809 419.62615,755.645291 421.147645,757.559093 Z M500,11.9788478 C496.902984,11.9788478 495.505925,12.1989924 493.157239,13.3183984 C489.472889,15.0743952 484.911034,18.7711183 479.115681,25.1477108 C463.911565,41.8767118 442.29818,74.8253064 412.155529,128.951178 C374.574435,196.433997 345.67874,295.490489 338.681975,396.929653 C336.51682,428.320084 336.402317,459.457052 338.421273,490.170865 C340.61802,489.885686 343.008263,489.583158 345.581459,489.266311 C357.161801,487.840383 370.063823,486.414653 383.957717,485.08403 C423.661173,481.281617 463.367711,479 500.445689,479 C544.514987,479 585.732926,481.28191 622.955809,485.085628 C635.988954,486.417454 647.593788,487.844772 657.627289,489.272637 C659.022077,489.471129 660.346567,489.664037 661.59964,489.850619 C663.59683,459.240618 663.475624,428.210997 661.317988,396.929653 C654.321227,295.490851 625.425617,196.434472 587.84473,128.95118 C557.701989,74.8253064 536.088541,41.8767119 520.88438,25.1477108 C515.089011,18.7711183 510.527142,15.0743952 506.842781,13.3183984 C504.494088,12.1989924 503.097025,11.9788478 500,11.9788478 Z M506.454191,849.157937 C494.00135,849.157937 479.589071,848.802617 465.74586,847.949441 C456.57208,847.383372 447.715132,846.601464 439.935823,845.559938 C440.244453,847.5086 440.533601,849.564163 440.805318,851.716446 C441.221609,854.997812 441.594835,858.501126 441.927048,862.171411 C449.274685,863.108071 457.47336,863.81973 465.920169,864.339984 C479.51217,865.177888 493.894714,865.528117 506.454191,865.528117 L506.454191,870.983147 C494.00135,870.983147 479.589071,870.627827 465.74586,869.773633 C457.522577,869.267633 449.553579,868.584481 442.387428,867.700762 C442.56994,870.093319 442.739122,872.539836 442.89395,875.029114 C443.069284,878.006065 443.225137,881.064466 443.363559,884.176826 C450.336944,885.024911 458.020895,885.678537 465.920169,886.165194 C479.51217,887.003098 493.894714,887.353327 506.454191,887.353327 L506.454191,892.808357 C494.00135,892.808357 479.589071,892.454055 465.74586,891.600879 C457.979882,891.120332 450.438454,890.48605 443.58811,889.671562 C443.753191,894.10441 443.88341,898.61158 443.977742,903.116714 C443.998249,904.106317 444.01773,905.095919 444.035161,906.082467 C450.829111,906.890846 458.273131,907.520037 465.920169,907.991422 C479.51217,908.829326 493.894714,909.178537 506.454191,909.178537 L506.454191,914.634585 C494.00135,914.634585 479.589071,914.279265 465.74586,913.425071 C458.174697,912.958777 450.820908,912.344857 444.110011,911.557859 C444.170507,917.871155 444.154101,924.045988 444.097707,929.880773 L446.588275,930.116974 C448.556942,930.307361 450.444606,930.495711 452.172316,930.638246 C454.663909,930.828633 457.033486,931.016983 459.323086,931.159518 C461.894657,931.34685 464.384199,931.490404 466.79479,931.629885 C469.567329,931.773438 472.299879,931.870159 474.910413,932.00964 C477.761903,932.105342 480.533416,932.199008 483.265966,932.29471 C486.237422,932.387358 489.129926,932.436227 491.902465,932.482042 C494.835983,932.530912 497.727461,932.577745 500.498975,932.577745 C503.272539,932.577745 506.164017,932.528875 509.09651,932.482042 C511.866998,932.436227 514.758477,932.389394 517.733009,932.29471 C520.424545,932.199008 523.236046,932.105342 526.088562,932.00964 C528.700121,931.870159 531.390632,931.773438 534.203159,931.629885 C536.611699,931.490404 539.104318,931.34685 541.674863,931.159518 C543.963438,931.016983 546.335066,930.826596 548.78462,930.638246 C550.553344,930.495711 552.401019,930.305324 554.409674,930.116974 L556.901267,929.880773 C556.780276,921.464063 556.81924,912.339767 557.021233,903.116714 C557.221176,893.516961 557.54416,883.919244 558.105025,875.029114 C558.626927,866.611385 559.311858,858.667078 560.154694,851.716446 C560.95754,845.334936 561.96033,839.800494 563.086161,835.404298 C563.529111,832.899749 564.251981,830.439997 565.175818,828.028095 C565.777697,826.466316 566.501592,824.953405 567.268552,823.488346 L564.817972,823.82025 C561.244638,824.337449 557.384206,824.765055 553.408935,825.095941 C545.857254,825.804545 537.419673,826.324799 528.823163,826.704553 C519.221813,827.128087 509.418469,827.366324 500.340046,827.411121 L500.300057,827.411121 C491.221634,827.366324 481.459305,827.129105 471.85898,826.704553 C463.222481,826.324799 454.824889,825.803527 447.273207,825.095941 C443.375863,824.765055 439.639498,824.337449 436.064113,823.865046 L433.773487,823.534161 C434.497382,825.002274 435.221278,826.514167 435.823156,828.028095 C436.746994,830.439997 437.470889,832.899749 437.872825,835.404298 C438.244001,836.806234 438.594669,838.322199 438.925857,839.944047 C447.009693,841.081275 456.30549,841.922234 465.920169,842.514773 C479.51217,843.352677 493.894714,843.700871 506.454191,843.700871 L506.454191,849.157937 Z M518.253885,986.764578 L528.778047,974.279504 C527.173379,974.375206 525.40363,974.468872 523.516991,974.562538 C520.182563,974.706091 516.486186,974.801794 512.549879,974.847609 C508.693549,974.894442 504.635225,974.942293 500.496924,974.942293 C496.359648,974.942293 492.303375,974.893423 488.444994,974.847609 C484.508687,974.801794 480.813336,974.706091 477.477882,974.562538 C475.589192,974.468872 473.821494,974.375206 472.175812,974.279504 L482.738938,986.764578 L483.141899,987.236981 C485.311534,989.74153 487.439129,992.294948 500.495899,992.957738 C513.552668,992.294948 515.682314,989.74153 517.851949,987.236981 L518.253885,986.764578 Z" id="Combined-Shape"></path>
        </g>
    </g>
</svg>