<?xml version="1.0" encoding="UTF-8"?>
<svg width="999px" height="914px" viewBox="0 0 999 914" version="1.1" xmlns="http://www.w3.org/2000/svg" xmlns:xlink="http://www.w3.org/1999/xlink">
    <!-- Generator: Sketch 52.5 (67469) - http://www.bohemiancoding.com/sketch -->
    <title>light_LLC001</title>
    <desc>Created with Sketch.</desc>
    <g id="Philips-Hue" stroke="none" stroke-width="1" fill="none" fill-rule="evenodd">
        <g id="Expanded" transform="translate(-1.000000, -43.000000)" fill="#000000" fill-rule="nonzero">
            <g id="light_LLC001" transform="translate(1.000000, 43.000000)">
                <path d="M990.16933,505.810872 C989.754627,515.596512 987.675641,524.320492 983.989272,531.737899 C983.144547,533.438085 982.20025,535.096724 981.183736,536.671173 L980.89596,537.188336 C943.09344,617.846067 895.489051,685.19642 835.363698,743.086957 C787.638946,789.037919 733.463869,827.789055 664.869386,865.038997 C603.633418,898.291587 523.287196,911.848252 444.429091,902.232084 C367.412529,892.841149 296.729213,862.058477 240.02215,813.211184 C233.675773,807.744346 227.277969,802.017286 221.002716,796.185263 L220.864846,796.061713 C216.623716,792.442666 214.62789,790.437429 210.650462,786.443357 C209.711636,785.500875 208.664484,784.449055 207.433506,783.221203 C203.128912,778.98987 198.950151,774.756351 195.01321,770.639822 C147.853066,721.316914 118.238466,669.201545 104.476677,611.316476 C93.0619528,563.302329 91.9830687,511.458116 100.977416,443.216668 C109.341503,379.76089 133.601074,313.04797 173.082102,244.933352 C212.327875,177.224374 343.134356,26.8578962 350.288254,21.3921513 C359.256341,15.3425482 370.846137,11.4053313 384.731571,9.69093085 C389.872136,9.06224446 395.389107,8.74626121 401.182911,8.74626121 C402.618505,8.74626121 404.072701,8.76594183 405.541121,8.80530306 C412.945592,9.00101587 420.849019,9.69749106 429.030374,10.8761414 C437.193127,12.0515116 445.910641,13.7473248 454.942192,15.9154728 C463.969365,18.0836209 473.441879,20.7590915 483.096031,23.865349 C492.265451,26.8152549 501.799241,30.2156282 511.434791,33.9702527 C521.103167,37.7379976 531.137008,41.9638635 541.259478,46.5297668 C551.416963,51.1120706 561.841434,56.1153209 572.246209,61.4006601 C582.659737,66.6892794 593.356664,72.4141523 604.038273,78.4167407 C613.679294,83.8343774 623.59496,89.6554667 633.510627,95.7170969 C643.40988,101.76998 653.472169,108.163994 663.416285,114.722013 C673.215966,121.183816 683.302327,128.078592 693.393066,135.215003 C703.521008,142.377654 713.546094,149.703218 723.192587,156.991606 C733.076521,164.459307 743.02939,172.228778 752.777643,180.083531 C762.471187,187.894549 772.129715,195.931895 781.486244,203.970334 C790.884352,212.04376 800.153344,220.268072 809.034989,228.414754 C817.89475,236.539569 826.654938,244.850256 835.069358,253.113929 C843.357944,261.252958 851.465987,269.481643 859.171364,277.570376 C866.854856,285.635056 874.397197,293.839687 881.590486,301.954662 C888.863652,310.160386 895.818406,318.307068 902.262166,326.170568 C908.72234,334.054842 915.039173,342.104215 921.037593,350.094546 C926.625687,357.538192 931.946796,364.958879 936.851013,372.148864 C941.79681,379.398985 946.495317,386.665506 950.818512,393.746155 C955.123106,400.797283 959.170563,407.862625 962.850367,414.744281 C966.546584,421.657644 969.916729,428.463858 972.8667,434.973769 C978.973446,448.449525 983.540649,461.317369 986.443569,473.218676 C989.328982,485.056567 990.582938,496.021951 990.16933,505.810872 M994.947713,471.147837 C991.916771,458.719527 987.171214,445.334521 980.84125,431.366749 C977.812497,424.681899 974.357004,417.702934 970.571062,410.622285 C966.81357,403.595211 962.68186,396.383358 958.290824,389.190092 C953.891034,381.9848 949.11265,374.593634 944.084788,367.223243 C939.106165,359.923921 933.707368,352.394991 928.040491,344.845287 C921.967666,336.756554 915.573144,328.608778 909.034188,320.629381 C902.519304,312.678411 895.491239,304.44426 888.142573,296.15544 C880.881443,287.961743 873.266885,279.680576 865.512269,271.539361 C857.740146,263.380651 849.562074,255.083084 841.205647,246.875173 C832.71901,238.541525 823.886604,230.163049 814.954626,221.970445 C806.002953,213.760348 796.662837,205.472621 787.193606,197.337966 C777.768142,189.239391 768.037396,181.143004 758.27273,173.274037 C748.454448,165.362429 738.428267,157.537197 728.472115,150.014827 C718.753406,142.67177 708.651725,135.290445 698.450472,128.075312 C688.282045,120.884233 678.1169,113.934789 668.238437,107.421597 C658.211162,100.80891 648.063525,94.3602276 638.078923,88.2559561 C628.073533,82.1385641 618.063765,76.2628064 608.328642,70.7915948 C597.539802,64.7299646 586.734549,58.9471431 576.212694,53.6027621 C565.688651,48.2572877 555.140536,43.1949955 544.861594,38.5580233 C534.601254,33.9297981 524.425167,29.6448903 514.615639,25.8213837 C504.817052,22.0022505 495.114755,18.5428353 485.779017,15.5404477 C475.915872,12.3653081 466.228894,9.63079563 456.987257,7.41125932 C447.694192,5.17969596 438.708598,3.43249447 430.278859,2.21885639 C421.761584,0.992097895 413.516766,0.266101781 405.773092,0.060548664 C397.950636,-0.145004453 390.513339,0.173165531 383.662535,1.00959178 C368.389652,2.89565096 355.513073,7.3139496 345.389508,14.1420305 C340.53453,17.41776 301.745039,61.9867051 267.077409,104.121814 C238.652208,138.670045 187.657978,202.333562 165.506935,240.550042 C125.444886,309.667277 100.81438,377.470285 92.2992934,442.074098 C83.1594169,511.420941 84.2875401,564.239345 95.9604961,613.339206 C110.091032,672.775764 140.421241,726.205361 188.68434,776.682865 C192.518427,780.692244 196.580108,784.807679 200.738079,788.905621 C175.340536,806.418091 146.780748,820.626403 115.041205,831.516345 C80.6230547,843.323622 42.4791432,851.237417 0.612753598,855.256637 L0,855.315679 L0.317318828,855.841588 C1.77151442,858.250277 3.09440567,860.670993 4.28599258,863.10155 C5.47757949,865.536479 6.54661568,867.99437 7.48872433,870.475221 L7.59486201,870.75403 L7.89029678,870.723415 C50.8191574,866.307303 90.021163,857.995523 125.496314,845.792446 C158.284102,834.514359 187.884478,819.899314 214.313854,801.966991 C214.578651,802.195505 214.827035,802.411992 215.109339,802.653626 C221.442585,808.538131 227.90057,814.318765 234.306034,819.835899 C292.331611,869.8192 364.6245,901.313655 443.368808,910.91561 C460.32567,912.982075 477.345995,914 494.251429,914 C557.723948,913.997813 619.457779,899.653923 669.049241,872.724278 C738.353861,835.089471 793.130751,795.896614 841.437618,749.385848 C902.280768,690.80321 950.455237,622.687499 988.699815,541.161634 C989.832315,539.389285 990.883844,537.529467 991.829235,535.628101 C996.0638,527.106393 998.448068,517.198296 998.915293,506.18043 C999.363916,495.57039 998.028989,483.783887 994.947713,471.147837" id="Shape"></path>
                <path d="M969.947148,501.328443 C969.204376,517.099947 963.694299,528.589505 953.100774,536.452853 C925.477095,556.95548 871.354289,545.520566 855.425714,541.526051 C808.02833,529.641959 758.216664,507.623492 698.665825,472.232417 C594.953418,410.595574 502.135365,331.836414 430.248385,244.469648 C394.883032,201.488447 357.235761,150.114939 346.154348,94.9775165 C338.804296,58.4093977 355.728339,42.8827012 366.469544,36.8827319 C378.447972,30.1909628 392.442496,27.9275864 406.490622,27.9275864 C419.452485,27.9275864 432.459199,29.8543525 443.969429,32.0084399 C507.339145,43.8663027 566.660261,75.0388207 611.26049,100.872568 C661.375172,129.899742 711.507357,165.23508 760.262295,205.899353 C813.366662,250.189837 856.354452,293.321857 891.682612,337.759881 C920.045781,373.435108 972.839474,439.840233 969.947148,501.328443 M751.221043,514.077011 C748.571568,514.941488 745.655176,515.595036 742.553912,516.020171 C739.39467,516.452955 735.932412,516.661697 732.27653,516.645304 C728.654559,516.626725 724.799584,516.379732 720.820995,515.91416 C716.778959,515.438753 712.479852,514.724002 708.044005,513.789581 C703.577528,512.850788 698.881327,511.670466 694.083392,510.281402 C689.339059,508.908732 684.294992,507.263931 679.091213,505.396181 C673.443302,503.367776 667.621457,501.075985 661.786486,498.580916 C655.921979,496.074918 649.821185,493.272746 643.654755,490.249811 C637.576933,487.271684 631.275952,483.995198 624.926838,480.50997 C618.583193,477.026928 612.152035,473.313285 605.811672,469.472868 C599.045775,465.374528 592.158452,460.996408 585.340046,456.460913 C578.524922,451.928695 571.656195,447.156042 564.924209,442.275193 C558.190035,437.394343 551.396789,432.263222 544.731532,427.023905 C538.065181,421.783494 531.4043,416.338714 524.931573,410.839288 C518.050813,405.007624 511.233501,398.990168 504.667791,392.953041 C498.11849,386.931214 491.704834,380.781518 485.60404,374.675539 C479.539345,368.605624 473.608109,362.399099 467.976607,356.228639 C462.356043,350.0702 456.959734,343.866953 451.939733,337.792667 C447.051003,331.875758 442.360272,325.894368 437.997718,320.012431 C433.658135,314.162187 429.592033,308.338173 425.912085,302.702137 C422.210258,297.03222 418.816917,291.440992 415.82942,286.084735 C412.855051,280.749243 410.179322,275.464025 407.876619,270.374433 C405.092592,264.221459 402.832552,258.313293 401.161042,252.816053 C399.521255,247.428103 398.405456,242.323211 397.844275,237.639082 C397.493126,232.316704 397.926319,227.527658 399.131819,223.334237 C403.663932,229.357157 408.38201,235.416142 413.205105,241.408461 C421.440138,251.641196 430.351214,262.131852 439.688919,272.588629 C440.767524,273.797366 441.877853,275.009382 442.97068,276.219212 C512.315389,354.63739 598.191423,425.235936 693.073704,481.624718 C713.723639,493.896787 733.235898,504.587442 751.910213,513.833297 C751.679396,513.91417 751.455142,514.000509 751.221043,514.077011 M602.734474,528.841963 C520.923448,566.462535 442.146958,642.606408 390.424213,699.914312 C389.758015,700.465128 386.055095,703.396261 380.060411,705.884773 C379.888665,705.955811 379.714732,706.027941 379.539705,706.096794 C379.166678,706.247612 378.785994,706.396246 378.395464,706.5416 C378.315608,706.571108 378.237939,706.601709 378.159177,706.63231 C377.643941,706.820287 377.114483,707.004986 376.571899,707.183127 C376.529236,707.197334 376.487667,707.210449 376.445004,707.224657 C375.31389,707.591868 374.124799,707.933943 372.878823,708.23558 C369.332333,709.0935 365.772716,709.531749 362.206536,709.568907 C361.973531,709.571093 361.740526,709.576557 361.504239,709.574371 C360.852262,709.572186 360.199192,709.549235 359.546121,709.518634 C359.15231,709.501148 358.756311,709.477104 358.35703,709.447596 C358.041981,709.424645 357.726932,709.392952 357.411883,709.364536 C356.638481,709.292406 355.857422,709.202789 355.066517,709.090221 C354.901335,709.066177 354.738341,709.042134 354.573159,709.016997 C352.950875,708.767818 351.28921,708.432301 349.592539,707.992959 C349.549877,707.98203 349.50612,707.968915 349.462363,707.957986 C348.319216,707.658534 347.158567,707.315367 345.983696,706.91974 C345.955254,706.909904 345.925718,706.902254 345.896182,706.892418 C345.329532,706.701162 344.758505,706.495699 344.184197,706.281492 C344.029954,706.223569 343.874617,706.162367 343.720375,706.103351 C342.801482,705.75144 341.872743,705.364557 340.937441,704.950351 C340.658491,704.826855 340.380636,704.70773 340.101686,704.579861 C339.660836,704.375491 339.21561,704.161284 338.770385,703.943799 C338.362353,703.7438 337.95432,703.536151 337.547382,703.326316 C337.180918,703.137246 336.816643,702.95364 336.447992,702.755827 C335.703032,702.35255 334.959166,701.93288 334.2153,701.494631 C333.936351,701.330698 333.655213,701.156928 333.375169,700.986437 C332.793204,700.633434 332.212332,700.271687 331.63146,699.896825 C331.372201,699.730706 331.11513,699.565679 330.855871,699.394096 C330.032149,698.849836 329.20952,698.292462 328.387986,697.704487 C327.461436,697.040009 326.566609,696.373346 325.701318,695.702311 C325.454092,695.511055 325.223274,695.315428 324.981518,695.123079 C324.365641,694.634557 323.749764,694.146035 323.164516,693.654234 C322.949014,693.471722 322.746639,693.287023 322.534418,693.10451 C321.939325,692.593038 321.345327,692.079379 320.783051,691.564628 C320.647405,691.441131 320.521605,691.314356 320.385958,691.189766 C319.760236,690.606162 319.142171,690.022559 318.55583,689.43677 C318.55036,689.431305 318.54489,689.425841 318.540515,689.420376 C298.937461,669.819384 301.61319,648.561569 305.459414,636.764908 L305.747115,635.880759 C308.388933,628.252383 312.134517,622.419626 314.409871,619.303795 C367.041664,547.249519 399.660183,474.583224 411.360756,403.327851 C420.042108,350.451619 414.826295,311.361109 411.630954,291.789624 C414.32528,296.490147 417.285429,301.331652 420.488427,306.237638 C424.238387,311.980778 428.378875,317.910802 432.795032,323.86487 C437.224316,329.836424 441.985058,335.908524 446.945987,341.910679 C452.03381,348.068025 457.499037,354.351053 463.191799,360.588179 C468.888936,366.829677 474.886902,373.107241 481.020514,379.246007 C487.185849,385.416467 493.666233,391.62955 500.282264,397.713672 C506.911422,403.808723 513.795463,409.885195 520.73967,415.769318 C527.271469,421.320109 533.996891,426.817348 540.72669,432.108032 C547.458676,437.398715 554.319745,442.581202 561.120648,447.511232 C567.923739,452.442354 574.864664,457.26528 581.751987,461.846677 C588.645873,466.432446 595.610865,470.859746 602.454431,475.00508 C608.873556,478.893585 615.38457,482.652035 621.808071,486.179886 C628.244698,489.712109 634.636475,493.036682 640.802905,496.058524 C647.069975,499.129547 653.272503,501.980898 659.239839,504.530612 C662.637556,505.981971 666.027615,507.359013 669.389233,508.66611 C657.169048,509.850803 634.671481,514.155699 602.734474,528.841963 M379.504699,807.332341 C369.425317,817.035024 355.710836,821.657951 340.266868,821.657951 C311.314076,821.655765 276.297684,805.402296 247.852472,775.910644 C226.580095,753.853926 212.164412,727.79395 207.262555,702.531784 C202.443835,677.695846 207.431018,656.66426 221.304117,643.308044 C238.778402,626.486272 267.892,624.355135 299.52599,637.469822 C299.288609,638.314627 299.072013,639.161617 298.870732,640.0097 C298.821505,640.216256 298.771185,640.420627 298.723052,640.630462 C298.622412,641.076361 298.523959,641.523354 298.433164,641.970346 C298.296423,642.639195 298.169529,643.324437 298.052479,644.020609 C298.01091,644.265416 297.972623,644.511316 297.93543,644.755031 C295.467545,660.492655 298.357683,682.937349 325.203584,702.145994 C326.015273,702.726319 326.821492,703.277136 327.62443,703.811559 C327.792893,703.924127 327.961357,704.03123 328.129821,704.141612 C328.82446,704.597348 329.516912,705.03669 330.206082,705.458545 C330.287032,705.507726 330.366888,705.556906 330.447838,705.606086 C350.709432,717.939356 368.176059,716.169966 380.162145,711.719716 C400.678623,749.788373 400.486093,787.133537 379.504699,807.332341 M767.272137,197.509232 C718.041343,156.449333 667.398298,120.754434 616.747595,91.4179719 C571.390373,65.1459752 510.990651,33.4302905 445.982243,21.2664183 C420.184318,16.4391206 387.22559,12.7670083 361.131212,27.34289 C338.432363,40.0226065 329.064029,65.4585419 335.428458,97.1283252 C340.73616,123.536933 351.885397,150.533516 369.51283,179.664515 C377.402184,192.700514 386.058376,205.23269 394.646746,216.84356 C391.950232,222.865387 390.840996,230.015077 391.387957,238.156019 L391.403272,238.319952 C392.007116,243.404079 393.204958,248.914434 394.965076,254.696918 C396.717537,260.460823 399.077123,266.632376 401.974918,273.039993 C402.835834,274.941623 403.762384,276.876039 404.719565,278.822477 L404.181356,278.834499 C404.222925,280.705528 404.719565,283.648682 405.471088,288.102211 C408.394043,305.413598 415.23761,345.954374 405.963352,402.44261 C394.402801,472.845528 362.113553,544.726035 309.991527,616.083047 C306.278761,621.164988 303.343772,626.630534 301.225942,632.265477 C267.667746,618.474291 236.529301,621.063349 217.508213,639.374731 C202.255681,654.057716 196.709504,676.856506 201.892499,703.571123 C206.99345,729.857328 221.916712,756.895441 243.914358,779.701881 C273.38895,810.262381 309.848223,827 340.387199,827 C357.207319,827 372.236692,821.916966 383.300603,811.266747 C406.019142,789.395821 406.667837,749.702035 385.194179,709.559071 C390.734886,706.849795 393.929134,704.115383 394.129321,703.94052 L394.362326,703.711013 C487.123495,600.898425 559.77622,554.727076 604.39067,534.096581 C642.999497,516.245306 670.466744,512.999421 679.592229,513.775373 L679.708184,512.468276 C684.046672,513.976465 688.269205,515.333835 692.281705,516.495578 C697.232789,517.928358 702.087608,519.149116 706.709422,520.120696 C711.335611,521.094462 715.828342,521.840906 720.065096,522.339264 C724.283253,522.834343 728.381079,523.094451 732.243712,523.115216 C732.403424,523.116309 732.560949,523.116309 732.718473,523.116309 C736.508908,523.116309 740.111188,522.885709 743.434518,522.431067 C746.918654,521.952381 750.214636,521.210308 753.231669,520.226706 C755.486239,519.491191 757.619384,518.604857 759.601568,517.57754 C792.645621,533.426639 823.134277,544.69762 852.763112,552.125997 C864.369607,555.036364 885.040327,559.299731 906.476792,559.299731 C925.540543,559.299731 945.209232,555.924884 959.623821,545.225486 C972.831816,535.422257 979.980586,520.826703 980.874319,501.842101 L980.874319,501.841008 C983.959175,436.255552 929.503816,367.76082 900.249103,330.962101 C864.451651,285.936102 820.955188,242.282774 767.272137,197.509232" id="Shape"></path>
                <path d="M840.11579,423.152345 C839.501569,434.416742 835.122098,443.451204 826.479213,449.405711 C817.125759,455.851874 803.536261,458.235862 786.762889,456.857039 C769.524198,455.438883 748.933022,450.050327 726.117074,441.012587 C701.186938,431.137939 673.65868,416.92251 645.379344,398.98688 C618.589027,381.997415 591.129746,361.67452 564.568257,338.548089 C536.473953,314.090908 512.767878,289.468749 494.134325,266.088842 C474.847137,241.889508 461.010199,219.038405 453.387731,199.100094 C445.979856,179.727734 444.674774,163.675694 449.639999,152.067138 C454.447563,140.827869 465.176171,133.728349 481.982389,131.796685 C497.540459,130.008148 516.749912,132.863033 538.045088,139.384584 C560.665054,146.311478 585.620372,157.36938 611.051958,171.395795 C634.369354,184.254252 658.504617,199.924984 681.965441,217.397365 C683.245342,218.350086 684.521957,219.30827 685.796383,220.271916 C687.138691,221.301117 688.477714,222.334689 689.814548,223.373723 C714.397611,242.489329 738.110255,263.369435 759.301418,284.792549 C761.918152,287.437661 764.477953,290.067477 766.979725,292.680905 C778.776924,305.218147 789.159554,317.426524 798.125425,329.172745 C812.318195,347.76501 822.957024,365.188225 830.051766,380.935437 C837.215485,396.835609 840.765046,411.238961 840.11579,423.152345 M812.631327,343.496339 C800.604206,327.088122 785.973489,309.71298 768.624216,291.588335 C762.589306,285.177134 756.187615,278.67962 749.415858,272.112181 C730.046554,253.326531 708.797363,235.252145 686.885777,218.706264 C663.294663,200.628599 638.996265,184.218197 615.41829,170.537034 C587.723613,154.466421 560.480021,141.707388 535.822506,133.648591 C512.46679,126.014804 491.403726,122.587412 474.432182,124.53765 C455.790965,126.680179 444.230258,134.961861 439.480722,148.115312 C434.624984,161.563757 436.930775,180.080634 446.106861,202.295861 C455.288421,224.528569 471.046851,249.75492 492.414288,276.227892 C513.08101,301.832272 539.011856,328.618812 569.328741,355.001102 C597.294946,379.364321 625.907122,400.648679 653.614938,418.372351 C683.036222,437.19187 711.444753,452.00275 736.985826,462.231391 C760.222202,471.537903 781.21191,477.101269 798.839279,478.592627 C816.215924,480.062134 830.340811,477.575445 840.159584,470.815714 C849.33786,464.511584 854.078637,454.904616 854.87789,442.883067 C855.70999,430.387344 852.27101,415.282562 845.124809,398.577166 C837.990652,381.900177 827.230292,363.411706 812.631327,343.496339" id="Shape"></path>
                <path d="M773.944717,394.31546 C773.515768,402.19157 770.460599,408.505793 764.43452,412.662447 C757.893045,417.174323 748.367528,418.841138 736.599876,417.873839 C724.443762,416.872657 709.905449,413.061389 693.782649,406.669564 C676.132266,399.671127 656.64134,389.597007 636.61751,376.885494 C617.63432,364.835242 598.178411,350.421938 579.359359,334.021572 C559.458086,316.680138 542.665601,299.222848 529.46666,282.64651 C515.821261,265.509467 506.036404,249.338629 500.650466,235.237921 C495.440703,221.598457 494.514961,210.314393 497.994701,202.173778 C501.346414,194.329364 508.839894,189.373732 520.584566,188.0217 C531.533713,186.761478 545.069686,188.778051 560.086191,193.381739 C576.086433,198.284908 593.745571,206.118391 611.746117,216.055887 C628.258472,225.170359 645.356256,236.282823 661.982414,248.677368 C678.359081,260.885011 694.257557,274.324458 708.66456,288.310402 C722.818789,302.049329 734.687113,315.361988 744.273908,327.933598 C754.315915,341.099797 761.83894,353.432041 766.85283,364.57183 C771.899549,375.783756 774.401023,385.934386 773.944717,394.31546 M746.629846,326.90072 C736.941284,314.19795 724.942744,300.739923 710.626565,286.843605 C696.074026,272.715572 680.032202,259.152617 663.523129,246.846604 C646.759095,234.348225 629.489513,223.128648 612.784568,213.905969 C594.534531,203.831849 576.6073,195.883601 560.334587,190.895179 C544.848646,186.148309 530.842142,184.0749 519.448726,185.386492 C506.842873,186.835802 498.779285,192.201306 495.145253,200.704795 C491.453226,209.344908 492.386629,221.194049 497.822903,235.42373 C503.328116,249.835941 513.290242,266.316096 527.158869,283.732945 C540.494593,300.481976 557.463254,318.121797 577.568059,335.641388 C596.563286,352.195866 616.196465,366.740329 635.345982,378.896602 C655.614926,391.76332 675.350965,401.964227 693.228955,409.05229 C709.696445,415.581832 724.604618,419.478354 737.137157,420.510139 C749.552609,421.530995 759.648235,419.741765 766.643827,414.915106 C773.17436,410.411973 776.482302,403.605903 776.944079,395.138484 C777.421175,386.37377 774.834349,375.824197 769.610361,364.215514 C764.488139,352.83636 756.829426,340.274587 746.629846,326.90072 M436.742289,340.492421 C436.047435,338.496615 433.86439,337.440783 431.866275,338.135927 C429.869254,338.829978 428.812201,341.010499 429.508149,343.006305 C437.676786,366.459758 427.489243,420.491886 402.920959,484.016663 C377.736608,549.13393 343.357206,609.930595 310.957317,646.645336 C309.557761,648.230177 309.710957,650.647878 311.297631,652.044724 C312.025313,652.685218 312.92917,653 313.82865,653 C314.890081,653 315.94604,652.562803 316.703266,651.704803 C387.116589,571.913006 455.550398,394.492852 436.742289,340.492421" id="Shape"></path>
                <path d="M471.176668,387.744238 C471.130715,385.630737 469.42059,383.959189 467.264061,384.000759 C465.150203,384.047798 463.472903,385.799204 463.519951,387.912706 C463.958696,407.859697 443.94707,459.292609 431.230004,487.0263 C411.778571,529.448389 376.67343,594.173826 319.899055,661.620997 C318.537958,663.238942 318.745843,665.654372 320.362966,667.016333 C321.081809,667.620191 321.957113,667.915556 322.826945,667.915556 C323.917792,667.915556 325.002075,667.451724 325.759212,666.552501 C383.087216,598.446774 418.543573,533.069346 438.191949,490.217337 C460.267104,442.073917 471.496154,402.224787 471.176668,387.744238 M514.697197,436.865427 C515.849315,435.091048 515.343827,432.720469 513.570243,431.569639 C511.795565,430.417715 509.424587,430.923118 508.273563,432.695309 C481.943339,473.254409 454.266242,513.717242 426.008162,552.962515 C395.382386,595.498374 363.220452,637.791377 330.417359,678.66444 C329.094556,680.314109 329.358241,682.724069 331.008189,684.046649 C331.714996,684.614406 332.561852,684.89008 333.402144,684.89008 C334.523626,684.89008 335.635262,684.398899 336.391305,683.457012 C369.277553,642.480025 401.520452,600.079815 432.223911,557.43675 C460.553109,518.091928 488.301325,477.52517 514.697197,436.865427 M517.041916,509.488817 C532.440693,496.687474 548.71368,486.437211 564.450543,476.523882 L565.139844,476.089586 C566.928746,474.961729 567.465963,472.597714 566.33901,470.809114 C565.210963,469.020514 562.845455,468.483387 561.057647,469.611244 L560.368346,470.044447 C544.42141,480.090142 527.931786,490.477149 512.144593,503.600112 C456.826505,549.588461 410.591879,607.182471 365.880281,662.879581 C359.993865,670.212293 354.129331,677.517657 348.269174,684.766136 C346.939807,686.410335 347.194739,688.82139 348.84031,690.149439 C349.548211,690.722666 350.399444,691.001622 351.245206,691.001622 C352.361218,691.001622 353.468477,690.514817 354.22452,689.579494 C360.091242,682.324451 365.961246,675.012524 371.854227,667.672153 C416.328399,612.270409 462.316846,554.983797 517.041916,509.488817 M611.220417,497.615686 C608.467587,498.320187 605.584556,498.984212 602.533029,499.687618 C583.734792,504.01964 557.989927,509.952103 520.279664,536.094104 C475.999153,566.789103 425.019288,618.036045 364.427496,692.760138 C363.09594,694.40215 363.34759,696.813204 364.990972,698.145629 C365.699968,698.71995 366.552295,699 367.400245,699 C368.514069,699 369.620234,698.515382 370.376277,697.582247 C430.505252,623.429194 480.9665,572.664681 524.643052,542.387569 C561.144303,517.084624 585.047747,511.575517 604.253001,507.149416 C607.350481,506.436164 610.277277,505.7612 613.118731,505.033727 C615.168036,504.509727 616.404402,502.424668 615.87922,500.374615 C615.355132,498.326751 613.271909,497.094969 611.220417,497.615686" id="Shape"></path>
            </g>
        </g>
    </g>
</svg>