<?xml version="1.0" encoding="UTF-8"?>
<svg width="262px" height="960px" viewBox="0 0 262 960" version="1.1" xmlns="http://www.w3.org/2000/svg" xmlns:xlink="http://www.w3.org/1999/xlink">
    <!-- Generator: Sketch 54.1 (76490) - https://sketchapp.com -->
    <title>Pedestal LWF001</title>
    <desc>Created with Sketch.</desc>
    <g id="Pedestal-LWF001" stroke="none" stroke-width="1" fill="none" fill-rule="evenodd">
        <path d="M14.9890571,176.750631 L14.9890571,192.930864 C31.3569163,201.0064 77.7602627,206.306568 131.985964,205.087259 C185.795447,203.87523 231.650253,196.608271 247.947703,187.870031 L247.959256,175.938337 L247.959259,175.93601 L247.964652,171.851482 C241.38781,175.769122 232.020098,179.221448 220.279479,182.246595 C197.070648,188.226701 165.726297,192.044461 132.238858,192.805997 C98.7521654,193.567527 67.2682829,191.178477 43.8140928,186.259492 C31.5329619,183.683803 21.7708464,180.535301 14.9890571,176.750631 Z M120.668511,127.481256 C124.006656,127.342549 127.372939,127.234206 130.761153,127.157153 C134.272049,127.077311 137.760929,127.032101 141.220847,127.020808 C170.885038,126.79048 198.430756,128.478649 219.531274,131.768847 C231.305624,133.604819 240.835624,135.902817 247.663498,138.614371 C256.501308,142.12413 261.823515,146.574274 261.979012,153.349651 C261.994034,154.009352 262.000317,154.887382 261.999988,155.945919 C261.999752,156.703263 261.996124,157.510749 261.990226,158.31919 C261.988092,158.61168 261.985805,158.883802 261.983515,159.128668 C261.981061,159.381742 261.981061,159.381742 261.980818,159.37461 L261.959248,175.953042 L261.819032,320.758186 L261.819021,320.781634 L260.999423,772.699885 C261.81469,812.08836 209.560476,834.145136 132.144533,835.89269 C54.5144179,837.644801 0.904861635,817.917051 0.0091073118,778.484312 C-0.060990257,775.195886 0.274309295,771.898059 0.989057757,768.589961 L0.989057757,159.150811 C0.883445675,152.425885 5.9908218,147.763833 14.6197535,143.876346 C21.316905,140.85916 30.7324403,138.13325 42.4113524,135.767657 C63.3969354,131.516975 90.9299702,128.583002 120.668509,127.481256 Z M247.977439,162.167458 L247.98124,159.289371 C247.981787,159.23923 247.981787,159.23923 247.984127,158.997867 C247.986331,158.762252 247.988538,158.499664 247.990599,158.217172 C247.996277,157.438861 247.999765,156.662607 247.999989,155.941568 C248.000148,155.432154 247.998637,154.971733 247.99539,154.573011 C247.959803,154.541809 247.92069,154.508255 247.877942,154.472511 C246.865319,153.62581 245.041005,152.629357 242.493791,151.617782 C236.793086,149.353861 228.204391,147.282843 217.373168,145.593933 C194.712672,142.060487 163.950354,140.426907 131.141422,141.167522 C98.3279549,141.908121 67.6692154,144.928403 45.1921098,149.481197 C34.4490642,151.657227 25.9639269,154.113776 20.3729739,156.6326 C17.8751882,157.757896 16.0989099,158.835371 15.1267295,159.726375 C15.0753714,159.773445 15.0295588,159.816816 14.9890571,159.856183 L14.9890571,167.262324 C19.8133861,171.172388 30.3034831,175.292952 45.4496547,178.469518 C68.2588843,183.253237 99.1446775,185.596903 132.057696,184.848419 C164.971523,184.099928 195.720536,180.354681 218.291317,174.538978 C233.025526,170.742487 243.223954,166.239 247.977439,162.167458 Z M247.94634,189.27695 C230.484135,198.322318 185.331045,205.271283 132.017165,206.472149 C78.2432494,207.681299 32.5410938,202.673507 14.9890571,194.298469 L14.9890571,340.428041 C31.4348734,354.161844 77.6624553,363.433039 131.857234,362.174593 C186.002279,360.916906 232.053914,349.490409 247.793406,334.899374 L247.819033,320.768952 L247.819036,320.751416 L247.94634,189.27695 Z M247.790657,336.414723 C230.944363,351.041536 185.3548,362.094623 131.884252,363.336642 C78.2985902,364.580944 32.4762146,355.649083 14.9890571,341.867097 L14.9890571,770.177379 L14.8038141,770.966078 C14.2243023,773.433437 13.9558015,775.834619 14.0057151,778.176496 C14.6449336,806.315841 61.3290361,823.495097 131.828435,821.903926 C202.186323,820.315698 247.641413,801.108503 247.001091,772.928128 L246.999298,772.756606 L247.790657,336.414723 Z" id="Combined-Shape" fill="#000000" fill-rule="nonzero"></path>
        <path d="M220.9994,156.477404 C221.178488,164.406112 181.253655,171.739843 131.825272,172.856502 C82.3958101,173.973161 42.1807673,168.451305 42.0006001,160.521519 C41.8215118,152.592811 81.7463452,145.260157 131.174728,144.143499 C180.605269,143.02684 220.820312,148.548696 220.9994,156.477404" id="Fill-3" fill="#000000"></path>
        <path d="M255,182 L254.859763,326.897846 L254.859763,326.908619 C251.569594,345.49079 198.107045,361.401437 132.303664,362.888011 C64.0946849,364.428446 8.44228502,349.896649 8,330.431152 L8,187.267642 C8.28047342,199.483399 63.7926366,208.144307 132.012403,206.603872 C199.638861,205.074209 254.341966,194.108035 255,182" id="Fill-5" fill="#000000"></path>
    </g>
</svg>