<?xml version="1.0" encoding="utf-8"?>
<!-- Generator: Adobe Illustrator 19.2.1, SVG Export Plug-In . SVG Version: 6.00 Build 0)  -->
<svg version="1.2" baseProfile="tiny" id="Layer_1" xmlns="http://www.w3.org/2000/svg" xmlns:xlink="http://www.w3.org/1999/xlink"
	 x="0px" y="0px" viewBox="0 0 50.8 50.8" xml:space="preserve">
<path fill="none" stroke="#010202" stroke-width="0.8" stroke-miterlimit="10" d="M12.3,0.4c0,0-11.9,0-11.9,11.9v26.3
	c0,0,0,11.9,11.9,11.9h26.3c0,0,11.9,0,11.9-11.9V12.3c0,0,0-11.9-11.9-11.9H12.3z"/>
<ellipse fill="none" stroke="#010202" stroke-width="0.8" stroke-miterlimit="10" cx="25.4" cy="25.4" rx="8.5" ry="8.5"/>
<path d="M25.4,7.7c-0.8,0-1.4,0.6-1.4,1.4c0,0.8,0.6,1.4,1.4,1.4c0.8,0,1.4-0.6,1.4-1.4C26.8,8.3,26.2,7.7,25.4,7.7"/>
</svg>
