<?xml version="1.0" encoding="utf-8"?>
<!-- Generator: Adobe Illustrator 19.2.1, SVG Export Plug-In . SVG Version: 6.00 Build 0)  -->
<svg version="1.2" baseProfile="tiny" id="Layer_1" xmlns="http://www.w3.org/2000/svg" xmlns:xlink="http://www.w3.org/1999/xlink"
	 x="0px" y="0px" viewBox="0 0 50 50" xml:space="preserve">
<g>
	<path fill="none" d="M45.5,38.6H4.5c-2,0-3.7,1.7-3.7,3.7c0,2,1.7,3.7,3.7,3.7h41.1c2,0,3.7-1.7,3.7-3.7
		C49.2,40.3,47.6,38.6,45.5,38.6z"/>
	<path d="M50,41.9c-0.2-2.3-2.1-4.1-4.5-4.1H4.5c-2.4,0-4.3,1.8-4.5,4.1v0.7c0.2,2.3,2.1,4.1,4.5,4.1h41.1c2.4,0,4.3-1.8,4.5-4.1
		V41.9z M45.5,46H4.5c-2,0-3.7-1.7-3.7-3.7c0-2,1.7-3.7,3.7-3.7h41.1c2,0,3.7,1.7,3.7,3.7C49.2,44.3,47.6,46,45.5,46z"/>
</g>
<rect x="23" y="2.7" fill="none" stroke="#000000" stroke-width="0.8" stroke-miterlimit="10" width="4" height="32.2"/>
</svg>
