<?xml version="1.0" encoding="utf-8"?>
<!-- Generator: Adobe Illustrator 19.2.1, SVG Export Plug-In . SVG Version: 6.00 Build 0)  -->
<svg version="1.2" baseProfile="tiny" id="Layer_1" xmlns="http://www.w3.org/2000/svg" xmlns:xlink="http://www.w3.org/1999/xlink"
	 x="0px" y="0px" viewBox="0 0 50 50" xml:space="preserve">
<g>
	<path fill="none" d="M43.2,37.5H6.8c-3.1,0-5.7,2.5-5.7,5.7v1.6h47.7v-1.6C48.8,40,46.3,37.5,43.2,37.5z"/>
	<rect x="23.4" y="3.1" fill="none" width="3.2" height="31.4"/>
	<path d="M43.2,36.7H6.8c-3.6,0-6.5,2.9-6.5,6.5v2.4h49.3v-2.4C49.6,39.6,46.7,36.7,43.2,36.7z M48.8,44.8H1.2v-1.6
		c0-3.1,2.5-5.7,5.7-5.7h36.3c3.1,0,5.7,2.5,5.7,5.7V44.8z"/>
	<path d="M22.6,2.3v33h4.8v-33H22.6z M26.6,34.6h-3.2V3.1h3.2V34.6z"/>
</g>
</svg>
