<?xml version="1.0" encoding="utf-8"?>
<!-- Generator: Adobe Illustrator 19.2.1, SVG Export Plug-In . SVG Version: 6.00 Build 0)  -->
<svg version="1.2" baseProfile="tiny" id="Layer_1" xmlns="http://www.w3.org/2000/svg" xmlns:xlink="http://www.w3.org/1999/xlink"
	 x="0px" y="0px" viewBox="0 0 50.7 50.7" xml:space="preserve">
<path fill="none" stroke="#1D1D1A" stroke-width="0.641" stroke-miterlimit="10" d="M23.4,48.5C23.4,48.5,23.4,48.5,23.4,48.5
	L23.4,48.5c0.1-0.2,0.2-0.3,0.2-0.4c1.4-3,4.5-10.5,5.3-12.1l0-21.2c-0.6-2.1-3.9-9.3-5.3-12.2c-0.1-0.1-0.1-0.3-0.2-0.4v0
	c0,0,0,0,0,0"/>
<path fill="none" stroke="#1D1D1A" stroke-width="0.641" stroke-miterlimit="10" d="M20.3,2.4L20.3,2.4c-5.6,10.7-7.1,17.9-7.1,22.9
	s1.5,12.2,7.1,22.9v0"/>
<path fill="none" stroke="#1D1D1A" stroke-width="0.641" stroke-miterlimit="10" d="M20.3,2.4v22.3V26v22.3c0.5,1.1,0.9,2.1,1.3,2.1
	c0.5,0,1.4-0.9,1.8-1.9V26v-1.3V2.2c-0.5-0.9-1.3-1.9-1.8-1.9C21.1,0.3,20.8,1.3,20.3,2.4z"/>
<polygon fill="none" stroke="#1D1D1A" stroke-width="0.641" stroke-miterlimit="10" points="28.9,35.9 37.5,38.4 37.5,12.2 
	28.9,14.8 "/>
</svg>
