<?xml version="1.0" encoding="utf-8"?>
<!-- Generator: Adobe Illustrator 19.2.1, SVG Export Plug-In . SVG Version: 6.00 Build 0)  -->
<svg version="1.2" baseProfile="tiny" id="Layer_1" xmlns="http://www.w3.org/2000/svg" xmlns:xlink="http://www.w3.org/1999/xlink"
	 x="0px" y="0px" viewBox="0 0 50.8 50" xml:space="preserve">
<polygon fill="none" stroke="#000000" stroke-width="0.8" stroke-miterlimit="10" points="14.983,10.419 14.983,29.169 0.4,29.169 
	0.4,31.252 50.4,31.252 50.4,29.169 35.816,29.169 35.816,10.419 "/>
<g>
	<path fill="none" d="M17.066,41.268h16.667c3.226,0,5.85-2.624,5.85-5.85v-1.684H11.216v1.684
		C11.216,38.644,13.84,41.268,17.066,41.268z"/>
	<path d="M10.416,35.419c0,3.667,2.983,6.65,6.65,6.65h16.667c3.667,0,6.65-2.983,6.65-6.65v-2.484H10.416V35.419z M11.216,33.735
		h28.366v1.684c0,3.226-2.624,5.85-5.85,5.85H17.066c-3.226,0-5.85-2.624-5.85-5.85V33.735z"/>
</g>
</svg>
