<?xml version="1.0" encoding="utf-8"?>
<!-- Generator: Adobe Illustrator 19.2.1, SVG Export Plug-In . SVG Version: 6.00 Build 0)  -->
<svg version="1.2" baseProfile="tiny" id="Layer_1" xmlns="http://www.w3.org/2000/svg" xmlns:xlink="http://www.w3.org/1999/xlink"
	 x="0px" y="0px" viewBox="0 0 50.8 50.8" xml:space="preserve">
<g id="Layer_2">
	<g>
		<path fill="none" stroke="#13110C" stroke-width="0.6" stroke-miterlimit="10" d="M25.3,35.8c4.9,5.3,14.7,12.1,22.2,7.9
			c5.3-3,2.3-12.1-0.7-16.1c-4.1-5.5-7.2-7.8-8.9-8.9c-0.3-0.2-0.8-0.6-0.2-0.6c0.6,0,3.7,0.3,3.7-3.1c0-3.5-4.2-8.2-8.4-10.2
			c-4.2-2-7.7-0.7-7,2.7c0.7,3.4,3.6,6.3,5,7.4c0.3,0.3,0.6,0.6-0.1,0.4c-0.8-0.2-4.4-1.1-7-0.2c-2.6,0.8-3.4,2.3-3.7,2.7
			c0,0.2-0.3,0.5-0.5-0.2c-0.2-0.6-1.7-5.1-7.2-8.3C9.1,7.4,4.2,6,1.4,8.7c-2.8,2.7,1,8.9,3.4,10.8c2.4,1.9,8.2,6.1,13.2,3.5
			c0.3-0.1,0.9-0.7,1,0.3C19.1,24.4,19.7,29.6,25.3,35.8z"/>
		<path fill="none" stroke="#13110C" stroke-width="0.6" stroke-miterlimit="10" d="M17.6,23.3c-0.2,2.4-1.4,10.1,6.9,18
			c8.3,7.9,20,6.6,24.1,1.7"/>
		<path fill="none" stroke="#13110C" stroke-width="0.6" stroke-miterlimit="10" d="M21.3,37.5c-0.9,0.8-3.3,3.2-3.6,3.5
			c-0.2,0.2-1.6,1.3-0.4,2c1.3,0.8,3.3,1.7,7.5,1.6c0.9,0,2.6-0.2,3.6-0.4"/>
		<path fill="none" stroke="#13110C" stroke-width="0.6" stroke-miterlimit="10" d="M17.6,41.1c0.6,0.7,2,2.6,9.1,2"/>
		<path fill="none" stroke="#13110C" stroke-width="0.6" stroke-miterlimit="10" d="M23.9,16.2c-2.9,1-8.8,8.3,4.3,21.4
			c3.9,3.4,13.4,9.4,19.2,4.7c5.7-4.7-1.5-14.8-2.7-16.2c-0.6-0.8-3.4-4.3-7.6-7C33.1,16.4,27.5,14.8,23.9,16.2z"/>
		<path fill="none" stroke="#13110C" stroke-width="0.6" stroke-miterlimit="10" d="M25.5,19.6c-2.3,0.8-7.1,6.7,3.5,17.2
			c3.1,2.7,10.8,7.6,15.4,3.8c4.6-3.8-1.2-11.9-2.2-13.1c-0.5-0.6-2.7-3.5-6.1-5.6C32.9,19.8,28.4,18.4,25.5,19.6z"/>
		<path fill="none" stroke="#13110C" stroke-width="0.6" stroke-miterlimit="10" d="M4.4,8.8c-1.9,0.6-5.3,3.9,2.2,10.7
			c2.1,1.7,7.3,4.7,10.4,2.4c3.1-2.4-0.5-7.3-1.2-8.1c-0.3-0.4-2.2-2.2-4.4-3.5C9.3,8.9,6.4,8.1,4.4,8.8z"/>
		<path fill="none" stroke="#13110C" stroke-width="0.6" stroke-miterlimit="10" d="M28.9,5.2c-1.8,0.4-3.3,3.2,2.2,8.5
			c1.5,1.3,5.9,4.3,8.2,2.5c2.3-1.8-0.9-5.9-1.4-6.5c-0.4-0.5-1.8-2-3.5-3C32.9,5.7,30.3,4.7,28.9,5.2z"/>
	</g>
</g>
</svg>
