<?xml version="1.0" encoding="utf-8"?>
<!-- Generator: Adobe Illustrator 19.2.1, SVG Export Plug-In . SVG Version: 6.00 Build 0)  -->
<svg version="1.2" baseProfile="tiny" id="Layer_1" xmlns="http://www.w3.org/2000/svg" xmlns:xlink="http://www.w3.org/1999/xlink"
	 x="0px" y="0px" viewBox="0 0 50 50" xml:space="preserve">
<g>
	<path fill="none" d="M26.6,19.3h-3.3v18.3H12.8c-0.9,0-1.6,0.7-1.6,1.6c0,0.9,0.7,1.7,1.6,1.7h24.5c0.9,0,1.6-0.7,1.6-1.6
		c0-0.9-0.7-1.7-1.6-1.7H26.6V19.3z"/>
	<path fill="none" d="M43.3,9.1H6.7C3,9.1,1,11.2,1,15v1.5h48V15C49,11.2,47,9.1,43.3,9.1z"/>
	<path d="M22.6,18.5v18.3h-9.8c-1.3,0-2.4,1.1-2.4,2.5c0,1.3,1.1,2.4,2.4,2.4h24.5c1.3,0,2.4-1.1,2.4-2.5c0-1.3-1.1-2.4-2.4-2.4
		h-9.8V18.5H22.6z M37.2,37.6c0.9,0,1.6,0.7,1.6,1.7c0,0.9-0.7,1.6-1.6,1.6H12.8c-0.9,0-1.6-0.7-1.6-1.7c0-0.9,0.7-1.6,1.6-1.6h10.6
		V19.3h3.3v18.3H37.2z"/>
	<path d="M43.3,8.3H6.7c-4.1,0-6.5,2.4-6.5,6.7v2.3h49.6V15C49.8,10.8,47.4,8.3,43.3,8.3z M49,16.5H1V15c0-3.8,2-5.9,5.7-5.9h36.6
		c3.7,0,5.7,2,5.7,5.9V16.5z"/>
</g>
</svg>
