<?xml version="1.0" encoding="utf-8"?>
<!-- Generator: Adobe Illustrator 19.2.1, SVG Export Plug-In . SVG Version: 6.00 Build 0)  -->
<svg version="1.2" baseProfile="tiny" id="Layer_1" xmlns="http://www.w3.org/2000/svg" xmlns:xlink="http://www.w3.org/1999/xlink"
	 x="0px" y="0px" viewBox="0 0 50.8 50.8" xml:space="preserve">
<path fill="none" stroke="#000000" stroke-width="0.8" stroke-miterlimit="10" d="M39.1,12.5c0-8.8-6.6-12.1-13.3-12.1
	c-6.7,0-14.2,3.3-14.2,12.1c0,10.1,5.6,11.7,6.5,16.3l0.7,7.7l1.6,2.1v8c0,0.9,1.3,1.6,2.3,1.8c0.2,0.4,0.7,1.1,1.3,1.8
	c0.4,0.1,1.1,0.2,1.8,0.2c0.7,0,1.4-0.1,1.8-0.2c0.6-0.7,1.1-1.4,1.3-1.8c1-0.3,2.3-0.9,2.3-1.8v-8l1.6-2.1c0,0,0.4-4.4,0.7-7.7
	C34.9,22.5,39.1,22.4,39.1,12.5z"/>
<line fill="none" stroke="#000000" stroke-width="0.8" stroke-miterlimit="10" x1="20.6" y1="38.5" x2="31.2" y2="38.5"/>
<path fill="none" stroke="#000000" stroke-width="0.8" stroke-miterlimit="10" d="M12.6,18.7c5.9,0.8,20.2,0.8,25.8,0"/>
<polyline fill="none" stroke="#000000" stroke-width="0.8" stroke-miterlimit="10" points="31.8,40.2 25.7,40.9 25.7,41 19.9,41.7 
	"/>
<polyline fill="none" stroke="#000000" stroke-width="0.8" stroke-miterlimit="10" points="31.9,42.2 25.8,43 25.8,43 20,43.7 "/>
<polyline fill="none" stroke="#000000" stroke-width="0.8" stroke-miterlimit="10" points="31.8,44.2 25.7,45 25.7,45 19.9,45.7 "/>
</svg>
