<?xml version="1.0" encoding="utf-8"?>
<!-- Generator: Adobe Illustrator 19.2.1, SVG Export Plug-In . SVG Version: 6.00 Build 0)  -->
<svg version="1.2" baseProfile="tiny" id="Layer_1" xmlns="http://www.w3.org/2000/svg" xmlns:xlink="http://www.w3.org/1999/xlink"
	 x="0px" y="0px" viewBox="0 0 50.8 50.8" xml:space="preserve">
<path fill="none" stroke="#000000" stroke-width="0.8" stroke-miterlimit="10" d="M38.3,3.2C34.8,0.9,29,0.4,25.4,0.4
	c-3.6,0-9.4,0.5-12.9,2.8c-3.5,2.3,0.9,9.5,2.1,12.5c2.5,7.3,3.7,20.5,3.7,20.5l1.7,2.1v8.1c0,1,1.3,1.6,2.3,1.9
	c0.2,0.4,0.7,1.1,1.3,1.8c0.4,0.1,1.1,0.2,1.8,0.2c0.7,0,1.4-0.1,1.8-0.2c0.6-0.8,1.1-1.4,1.3-1.8c1-0.3,2.3-0.9,2.3-1.9v-8.1
	l1.7-2.1c0,0,1.2-13.2,3.7-20.5C37.4,12.7,41.9,5.5,38.3,3.2z M20,38.4h10.9 M14.3,15c2.9,1.5,16.7,2.2,22.3-0.2 M31.5,40l-6.3,0.8
	l-0.1,0l-5.9,0.7 M31.6,42.1l-6.2,0.8l0,0l-5.9,0.7 M31.5,44.2l-6.3,0.8l-0.1,0l-5.9,0.7"/>
</svg>
